<?xml version="1.0" encoding="utf-8"?>
<!-- Generator: Adobe Illustrator 28.0.0, SVG Export Plug-In . SVG Version: 6.00 Build 0)  -->
<svg version="1.1" id="Layer_1" xmlns="http://www.w3.org/2000/svg" xmlns:xlink="http://www.w3.org/1999/xlink" x="0px" y="0px"
	 viewBox="0 0 2400 1599" style="enable-background:new 0 0 2400 1599;" xml:space="preserve">
<style type="text/css">
	.st0{fill:none;stroke:#202B11;stroke-miterlimit:10;}
	.st1{fill:none;stroke:#202B11;stroke-miterlimit:10;stroke-dasharray:14.1295,14.1295;}
	.st2{fill:none;stroke:#202B11;stroke-miterlimit:10;stroke-dasharray:14.0946,14.0946;}
	.st3{fill:none;}
</style>
<g>
	<g>
		<g>
			<g>
				<line class="st0" x1="340" y1="59.6" x2="340" y2="66.6"/>
				<line class="st1" x1="340" y1="80.7" x2="340" y2="1458.3"/>
				<line class="st0" x1="340" y1="1465.4" x2="340" y2="1472.4"/>
			</g>
		</g>
		<g>
			<g>
				<line class="st0" x1="386.5" y1="59.6" x2="386.5" y2="66.6"/>
				<line class="st1" x1="386.5" y1="80.7" x2="386.5" y2="1458.3"/>
				<line class="st0" x1="386.5" y1="1465.4" x2="386.5" y2="1472.4"/>
			</g>
		</g>
		<g>
			<g>
				<line class="st0" x1="641.1" y1="59.6" x2="641.1" y2="66.6"/>
				<line class="st1" x1="641.1" y1="80.7" x2="641.1" y2="1458.3"/>
				<line class="st0" x1="641.1" y1="1465.4" x2="641.1" y2="1472.4"/>
			</g>
		</g>
		<g>
			<g>
				<line class="st0" x1="903.5" y1="59.6" x2="903.5" y2="66.6"/>
				<line class="st1" x1="903.5" y1="80.7" x2="903.5" y2="1458.3"/>
				<line class="st0" x1="903.5" y1="1465.4" x2="903.5" y2="1472.4"/>
			</g>
		</g>
		<g>
			<g>
				<line class="st0" x1="1156.9" y1="59.6" x2="1156.9" y2="66.6"/>
				<line class="st1" x1="1156.9" y1="80.7" x2="1156.9" y2="1458.3"/>
				<line class="st0" x1="1156.9" y1="1465.4" x2="1156.9" y2="1472.4"/>
			</g>
		</g>
		<g>
			<g>
				<line class="st0" x1="1416" y1="59.6" x2="1416" y2="66.6"/>
				<line class="st1" x1="1416" y1="80.7" x2="1416" y2="1458.3"/>
				<line class="st0" x1="1416" y1="1465.4" x2="1416" y2="1472.4"/>
			</g>
		</g>
		<g>
			<g>
				<line class="st0" x1="1717.4" y1="136.8" x2="1710.4" y2="136.8"/>
				<line class="st2" x1="1696.3" y1="136.8" x2="209.3" y2="136.8"/>
				<line class="st0" x1="202.3" y1="136.8" x2="195.3" y2="136.8"/>
			</g>
		</g>
		<g>
			<g>
				<line class="st0" x1="1717.4" y1="330.8" x2="1710.4" y2="330.8"/>
				<line class="st2" x1="1696.3" y1="330.8" x2="209.3" y2="330.8"/>
				<line class="st0" x1="202.3" y1="330.8" x2="195.3" y2="330.8"/>
			</g>
		</g>
		<g>
			<g>
				<line class="st0" x1="1717.4" y1="461.8" x2="1710.4" y2="461.8"/>
				<line class="st2" x1="1696.3" y1="461.8" x2="209.3" y2="461.8"/>
				<line class="st0" x1="202.3" y1="461.8" x2="195.3" y2="461.8"/>
			</g>
		</g>
		<g>
			<g>
				<line class="st0" x1="1717.4" y1="1099" x2="1710.4" y2="1099"/>
				<line class="st2" x1="1696.3" y1="1099" x2="209.3" y2="1099"/>
				<line class="st0" x1="202.3" y1="1099" x2="195.3" y2="1099"/>
			</g>
		</g>
		<g>
			<g>
				<line class="st0" x1="1717.4" y1="1230.1" x2="1710.4" y2="1230.1"/>
				<line class="st2" x1="1696.3" y1="1230.1" x2="209.3" y2="1230.1"/>
				<line class="st0" x1="202.3" y1="1230.1" x2="195.3" y2="1230.1"/>
			</g>
		</g>
	</g>
	<rect class="st3" width="2400" height="1599"/>
</g>
</svg>
