<?xml version="1.0" encoding="utf-8"?>
<!-- Generator: Adobe Illustrator 24.0.2, SVG Export Plug-In . SVG Version: 6.00 Build 0)  -->
<svg version="1.1" id="Layer_1" xmlns="http://www.w3.org/2000/svg" xmlns:xlink="http://www.w3.org/1999/xlink" x="0px" y="0px"
	 viewBox="0 0 2645 2567.1" style="enable-background:new 0 0 2645 2567.1;" xml:space="preserve">
<style type="text/css">
	.st0{fill-opacity:0.9;}
	.st1{fill:none;stroke:#000000;stroke-width:4;stroke-opacity:0.3;}
</style>
<path class="st0" d="M544,562.7H191l-67,158H1l309-700h121l306,700H611L544,562.7z M499,457.7l-132-311l-132,311H499z M1102.3,720.7
	v-65c-38,47-99,70-176,70c-115,0-187-71-187-165c0-97,73-159,201-160h161v-16c0-67-43-107-127-107c-51,0-104,18-157,54l-47-80
	c74-44,128-67,229-67c137,0,214,70,215,187l1,349H1102.3z M950.3,634.7c82,0,145-43,151-101v-49h-144c-75,0-110,20-110,71
	C847.3,603.7,886.3,634.7,950.3,634.7z"/>
<line class="st1" x1="0" y1="957.7" x2="1285" y2="957.7"/>
<path class="st0" d="M166.4,1315.7h-21.8l-0.2-104.6l-44.2,90H84.8l-44.2-90v104.6H18.4v-140h28l46.2,93l46-93h27.8V1315.7z
	 M239.6,1208.5c32.8,0,55.4,21.8,55.4,54c0,32-22.6,54-55.4,54c-33,0-55.6-22-55.6-54C184,1230.3,206.6,1208.5,239.6,1208.5z
	 M239.6,1228.3c-19.2,0-32.6,14-32.6,34.4c0,20.6,13.4,34.6,32.6,34.6c19,0,32.4-14,32.4-34.6C272,1242.3,258.6,1228.3,239.6,1228.3
	z M373.2,1208.5c24.8,0,39.6,15.6,39.6,41v66.2h-23v-59.8c0-16-9.6-25.8-25.6-25.8c-17.6,0.2-28.6,12.4-30.2,29v56.6h-23v-106.4h23
	v20.4C341.6,1214.9,355.2,1208.5,373.2,1208.5z M490,1291.3l5.8,17.6c-8.4,5-17.2,7.8-26.2,7.8c-16,0-29.8-9.2-29.8-31v-55.2h-15
	v-17.2h15v-29.2h22.8v29.2H494v17.2h-31.4v51c0,11,4.2,14.4,11.4,14.4C478.8,1295.9,483.8,1294.3,490,1291.3z M540.8,1208.3
	c13.4,0,27.6,4,37.2,10.8l-8.4,17c-9.4-5.8-21.2-9.4-30.6-9.4c-9,0-15.6,3-15.6,10.6c0,19.6,56.6,9,56.4,47.6
	c0,21.8-19.4,31.6-40.8,31.6c-15.6,0-32.2-5.2-42.8-14.8l8.2-16.4c9.2,8.2,24,13.2,35.6,13.2c9.8,0,17.4-3.4,17.4-11.4
	c0-21.8-56-9.6-55.8-48C501.6,1217.5,520.4,1208.3,540.8,1208.3z M638.8,1208.5c37.4,0,52.6,24.4,49.8,62.8h-80.4
	c3.6,16.4,16.2,26.6,33,26.6c11.6,0,22.2-4.4,30-12.4l12.2,13c-10.4,11.4-25.6,18-44,18c-32.8,0-54.4-21.8-54.4-53.8
	C585,1230.5,607.2,1208.7,638.8,1208.5z M607.8,1254.5h60.8c-0.8-17.2-12.2-27.6-29.6-27.6C622.2,1226.9,610.4,1237.5,607.8,1254.5z
	 M727.5,1209.3v21.2c7.2-14.4,20-22,36.8-22v22c-21.4-1.2-35,11.4-36.8,29.6v55.6h-23v-106.4H727.5z M798.3,1209.3v21.2
	c7.2-14.4,20-22,36.8-22v22c-21.4-1.2-35,11.4-36.8,29.6v55.6h-23v-106.4H798.3z M905.5,1315.7v-13c-7.6,9.4-19.8,14-35.2,14
	c-23,0-37.4-14.2-37.4-33c0-19.4,14.6-31.8,40.2-32h32.2v-3.2c0-13.4-8.6-21.4-25.4-21.4c-10.2,0-20.8,3.6-31.4,10.8l-9.4-16
	c14.8-8.8,25.6-13.4,45.8-13.4c27.4,0,42.8,14,43,37.4l0.2,69.8H905.5z M875.1,1298.5c16.4,0,29-8.6,30.2-20.2v-9.8h-28.8
	c-15,0-22,4-22,14.2C854.5,1292.3,862.3,1298.5,875.1,1298.5z M1005.3,1291.3l5.8,17.6c-8.4,5-17.2,7.8-26.2,7.8
	c-16,0-29.8-9.2-29.8-31v-55.2h-15v-17.2h15v-29.2h22.8v29.2h31.4v17.2h-31.4v51c0,11,4.2,14.4,11.4,14.4
	C994.1,1295.9,999.1,1294.3,1005.3,1291.3z M112.2,1436.9H42v40.4h63.6v21H42v57.4H18.4v-140h94L112.2,1436.9z M187.8,1555.7v-13
	c-7.6,9.4-19.8,14-35.2,14c-23,0-37.4-14.2-37.4-33c0-19.4,14.6-31.8,40.2-32h32.2v-3.2c0-13.4-8.6-21.4-25.4-21.4
	c-10.2,0-20.8,3.6-31.4,10.8l-9.4-16c14.8-8.8,25.6-13.4,45.8-13.4c27.4,0,42.8,14,43,37.4l0.2,69.8H187.8z M157.4,1538.5
	c16.4,0,29-8.6,30.2-20.2v-9.8h-28.8c-15,0-22,4-22,14.2C136.8,1532.3,144.6,1538.5,157.4,1538.5z M372,1448.5c24.4,0,39,15.6,39,41
	v66.2h-23v-59.8c0-16.2-9.6-26-25.2-26c-18.2,0.6-29.2,14.6-29.2,33.2v52.6h-23v-59.8c0-16.2-9.4-26-25-26
	c-18.4,0.6-29.6,14.6-29.6,33.2v52.6h-22.8v-106.4H256v20.6c7.4-15,21-21.4,38.6-21.4c19,0,32,9.4,37,25.6
	C338.4,1456.3,352.6,1448.5,372,1448.5z M445.2,1404.9c7.6,0,13.4,5.8,13.4,14c0,8-5.8,13.8-13.4,13.8s-13.4-5.8-13.4-13.8
	C431.8,1410.7,437.6,1404.9,445.2,1404.9z M456.6,1555.7h-22.8v-106.4h22.8V1555.7z M506.7,1555.7h-23v-148.4h23V1555.7z
	 M623.8,1449.3l-48.4,121c-6.6,16.8-18.6,25.2-34.6,25.2c-9.6,0-17.2-2.8-24.6-9l9.8-17.8c5,3.6,9,5.2,13.8,5.2
	c7,0,12.6-3.8,16.2-11.8l3.6-8l-44-104.8h23.8l31.8,80.6l29.6-80.6H623.8z"/>
<path class="st0" d="M38.4,1734h-16v43.6h-5.6V1734h-16v-5.4h37.6V1734z M70.9,1740.8L54,1782.9c-2.3,5.7-6.2,8.6-11.1,8.6
	c-3.1,0-5.5-0.9-7.8-2.7l2.3-4.5c1.7,1.2,3.4,1.8,5.2,1.8c2.9,0,5.2-1.8,6.7-5.2l1.5-3.4l-15.3-36.6h5.7l12.2,30.5l11.7-30.5H70.9z
	 M97.4,1740.6c10.4,0,17.7,7.7,17.7,18.8c0,10.9-7.1,18.5-17.6,18.5c-6.6,0-11.6-3-14.3-8.1v21.5h-5.5v-50.5h5.5v8
	C85.9,1743.6,90.9,1740.6,97.4,1740.6z M96.4,1772.9c7.7,0,13.2-5.7,13.2-13.7c0-7.9-5.5-13.7-13.2-13.7c-7.8,0-13.2,5.7-13.2,13.7
	C83.1,1767.2,88.6,1772.9,96.4,1772.9z M139.6,1740.6c10.9,0,18.7,7.6,18.7,18.6c0,11.1-7.8,18.7-18.7,18.7s-18.7-7.6-18.7-18.7
	C120.9,1748.2,128.7,1740.6,139.6,1740.6z M139.6,1745.6c-7.7,0-13.2,5.6-13.2,13.7c0,8.1,5.5,13.7,13.2,13.7s13.2-5.6,13.2-13.7
	C152.8,1751.2,147.3,1745.6,139.6,1745.6z M200,1740.8v33c0,10.8-7.3,17.6-18.5,17.6c-5.8-0.1-10.6-2-15.1-5.3l2.5-4.2
	c3.6,3,7.5,4.6,12.4,4.7c8.1,0,13.3-4.9,13.3-12.6v-5.6c-2.6,4.9-7.4,7.7-13.6,7.7c-9.9,0-16.8-7.3-16.8-17.8
	c0-10.3,6.8-17.6,16.7-17.6c6.3,0,11.1,2.8,13.7,7.7v-7.5H200z M182,1771.4c7.4,0,12.6-5.5,12.6-13c0-7.7-5.2-13.1-12.6-13.1
	c-7.4,0-12.6,5.5-12.7,13.1C169.4,1766,174.6,1771.4,182,1771.4z M217.9,1740.8v8.2c2.5-5.4,7-8.3,13.2-8.4v5.5
	c-7.8-0.1-12.6,4.7-13.2,12v19.6h-5.5v-36.9H217.9z M259.6,1777.7v-5.7c-2.9,4-7.6,5.9-13.5,5.9c-7.6,0-12.5-4.9-12.5-11.3
	c0-6.4,5.1-10.5,13.8-10.6h12.1v-2.2c0-5.4-3.4-8.6-9.9-8.6c-4.1,0-7.8,1.5-11.7,4.2l-2.3-4c4.8-3.2,8.8-5,15-5
	c9.1,0,14.1,4.8,14.2,12.7l0.1,24.4H259.6z M247.1,1773.2c6.2,0,11-3.1,12.4-8.3v-4.4H248c-6.2,0-9.4,1.9-9.4,6
	S241.9,1773.2,247.1,1773.2z M297.1,1740.6c10.4,0,17.7,7.7,17.7,18.8c0,10.9-7.1,18.5-17.6,18.5c-6.6,0-11.6-3-14.3-8.1v21.5h-5.5
	v-50.5h5.5v8C285.6,1743.6,290.7,1740.6,297.1,1740.6z M296.1,1772.9c7.7,0,13.2-5.7,13.2-13.7c0-7.9-5.5-13.7-13.2-13.7
	c-7.8,0-13.2,5.7-13.2,13.7C282.9,1767.2,288.4,1772.9,296.1,1772.9z M344.5,1740.6c8.8,0,14,5.5,14,14.3v22.8h-5.5v-21.3
	c0-6.5-3.9-10.4-10.4-10.4c-7.8,0.1-12.5,5.6-12.5,13.5v18.1h-5.5v-51.9h5.5v23.3C332.7,1743.3,337.8,1740.6,344.5,1740.6z
	 M397.9,1740.8l-16.9,42.1c-2.3,5.7-6.2,8.6-11.1,8.6c-3.1,0-5.5-0.9-7.8-2.7l2.3-4.5c1.7,1.2,3.4,1.8,5.2,1.8
	c2.9,0,5.2-1.8,6.7-5.2l1.5-3.4l-15.3-36.6h5.7l12.2,30.5l11.7-30.5H397.9z M436.5,1730.5c-3.6,0-6.5,2.3-6.5,6.6v4.8h10.6v4.5H430
	v31.3h-5.4v-31.3h-4.8v-4.5h4.8v-4.1c0-8.1,5.7-12.4,11.8-12.4c2.8,0.1,5.7,0.9,7.9,2.6l-2.2,4.4
	C440.4,1731.2,438.4,1730.5,436.5,1730.5z M460.5,1740.6c10.9,0,18.7,7.6,18.7,18.6c0,11.1-7.8,18.7-18.7,18.7
	c-10.9,0-18.7-7.6-18.7-18.7C441.8,1748.2,449.6,1740.6,460.5,1740.6z M460.5,1745.6c-7.7,0-13.2,5.6-13.2,13.7
	c0,8.1,5.5,13.7,13.2,13.7c7.7,0,13.2-5.6,13.2-13.7C473.7,1751.2,468.2,1745.6,460.5,1745.6z M494.2,1740.8v8.2
	c2.5-5.4,7-8.3,13.2-8.4v5.5c-7.8-0.1-12.6,4.7-13.2,12v19.6h-5.5v-36.9H494.2z M551.5,1770.7l1.5,4.4c-2.6,1.8-5.4,2.7-8.3,2.8
	c-5.4,0-9.4-3.2-9.4-10.5v-21.1h-5.3v-4.4h5.3v-9.7h5.4v9.7l11.7-0.1v4.5h-11.7v20.1c0,4.5,1.8,6.2,4.9,6.2
	C547.6,1772.6,549.5,1772,551.5,1770.7z M575.3,1740.6c11.9-0.1,17.8,8.2,17.2,20.7h-30.1c1,7.2,6.2,11.8,13.4,11.8
	c4.5,0,8.5-1.6,11.4-4.6l3,3.2c-3.5,3.9-8.7,6.2-14.8,6.2c-10.8,0-18.3-7.6-18.3-18.6C557.1,1748.3,564.6,1740.6,575.3,1740.6z
	 M562.5,1756.9h25.2c-0.3-7.1-5.1-11.5-12.3-11.5C568.3,1745.3,563.3,1749.9,562.5,1756.9z M611.6,1754.8l9.9-14h6l-12.3,17.9
	l13.2,19h-6.4l-10.5-15.1l-10.8,15.1h-6.2l13.4-19l-12.5-17.9h6.3L611.6,1754.8z M654.4,1770.7l1.5,4.4c-2.6,1.8-5.4,2.7-8.3,2.8
	c-5.4,0-9.4-3.2-9.4-10.5v-21.1h-5.3v-4.4h5.3v-9.7h5.4v9.7l11.7-0.1v4.5h-11.7v20.1c0,4.5,1.8,6.2,4.9,6.2
	C650.4,1772.6,652.3,1772,654.4,1770.7z M664.5,1770.9c1.9,0,3.4,1.5,3.4,3.6c0,2.1-1.5,3.6-3.4,3.6c-2,0-3.4-1.5-3.4-3.6
	C661,1772.5,662.5,1770.9,664.5,1770.9z"/>
<path class="st0" d="M22,2128.4c5.7,0,11.5,1.8,15.5,4.6l-2.4,5.2c-4.4-2.9-9.6-4.1-13.5-4.1c-6.3,0-10.4,2.4-10.4,6.5
	c0,12.6,27.6,6,27.5,23.8c0,8.2-7.2,13.4-17.7,13.4c-7.1,0-14.1-3.1-18.8-7.5l2.5-5c4.6,4.4,10.8,6.9,16.3,6.9
	c7.1,0,11.5-2.9,11.5-7.6c0.1-12.9-27.5-6-27.5-23.6C5,2133.4,11.8,2128.4,22,2128.4z M72.3,2177.7v-5.7c-2.9,4-7.6,5.9-13.5,5.9
	c-7.6,0-12.5-4.9-12.5-11.3c0-6.4,5.1-10.5,13.8-10.6h12.1v-2.2c0-5.4-3.4-8.6-9.9-8.6c-4.1,0-7.8,1.5-11.7,4.2l-2.3-4
	c4.8-3.2,8.8-5,15-5c9.1,0,14.1,4.8,14.2,12.7l0.1,24.4H72.3z M59.9,2173.2c6.2,0,11-3.1,12.4-8.3v-4.4H60.8c-6.2,0-9.4,1.9-9.4,5.9
	S54.7,2173.2,59.9,2173.2z M109.6,2140.6c8.8,0,14,5.5,14,14.4v22.8h-5.5v-21.3c0-6.5-3.9-10.4-10.4-10.4
	c-7.3,0.1-11.8,4.8-12.4,11.8v19.8h-5.5v-36.9h5.5v8.1C97.9,2143.3,102.9,2140.6,109.6,2140.6z M145.6,2140.6
	c4.4,0,8.7,1.3,11.8,3.4l-2.1,4.3c-2.9-1.8-6.6-3-10-3c-4.1,0-7.3,1.5-7.3,4.9c0,8.2,20.6,4,20.6,17.2c0,7.3-6.4,10.5-13.5,10.5
	c-5.2,0-10.6-1.8-14.1-5.2l2.1-4.1c3.1,2.9,7.9,4.7,12.2,4.7s7.8-1.6,7.9-5.2c0.2-8.9-20.4-4.3-20.4-17.4
	C132.8,2143.5,138.9,2140.6,145.6,2140.6z M202,2128.4c5.7,0,11.5,1.8,15.5,4.6l-2.4,5.2c-4.4-2.9-9.6-4.1-13.5-4.1
	c-6.3,0-10.4,2.4-10.4,6.5c0,12.6,27.6,6,27.5,23.8c0,8.2-7.2,13.4-17.7,13.4c-7.1,0-14.1-3.1-18.8-7.5l2.5-5
	c4.6,4.4,10.8,6.9,16.3,6.9c7.1,0,11.5-2.9,11.5-7.6c0.1-12.9-27.5-6-27.5-23.6C185.1,2133.4,191.9,2128.4,202,2128.4z
	 M244.1,2140.6c11.9-0.1,17.8,8.2,17.2,20.7h-30.1c1,7.2,6.2,11.8,13.4,11.8c4.6,0,8.5-1.6,11.4-4.6l3,3.2
	c-3.5,3.9-8.7,6.2-14.8,6.2c-10.9,0-18.3-7.6-18.3-18.6S233.4,2140.6,244.1,2140.6z M231.2,2156.9h25.2c-0.3-7.1-5.1-11.6-12.3-11.6
	C237.1,2145.3,232,2149.9,231.2,2156.9z M276.1,2140.8v8.2c2.4-5.4,7-8.3,13.2-8.4v5.5c-7.8-0.1-12.6,4.7-13.2,12v19.6h-5.5v-36.9
	H276.1z M299.4,2126.4c2,0,3.6,1.6,3.6,3.8s-1.5,3.8-3.6,3.8s-3.6-1.6-3.6-3.8S297.3,2126.4,299.4,2126.4z M302.1,2177.7h-5.4v-36.9
	h5.4V2177.7z M328.4,2130.5c-3.6,0-6.5,2.3-6.5,6.6v4.8h10.6v4.5h-10.6v31.3h-5.4v-31.3h-4.8v-4.5h4.8v-4.1c0-8,5.7-12.4,11.8-12.4
	c2.8,0.1,5.7,0.9,7.9,2.6l-2.2,4.4C332.3,2131.2,330.3,2130.5,328.4,2130.5z"/>
<path class="st0" d="M943.5,2128.5c14.3,0,25.6,10.8,25.6,24.6s-11.3,24.8-25.6,24.8c-14.3,0-25.7-11-25.7-24.8
	C917.8,2139.3,929.1,2128.5,943.5,2128.5z M943.5,2133.8c-10.9,0-20,8.5-20,19.3s9.1,19.4,20,19.4s19.9-8.6,19.9-19.4
	S954.4,2133.8,943.5,2133.8z M998.6,2140.6c10.4,0,17.7,7.7,17.7,18.8c0,10.9-7.1,18.6-17.6,18.6c-6.6,0-11.6-3-14.3-8.1v21.5h-5.5
	v-50.5h5.5v8C987.1,2143.6,992.2,2140.6,998.6,2140.6z M997.6,2172.9c7.7,0,13.2-5.7,13.2-13.7c0-7.9-5.5-13.7-13.2-13.7
	c-7.8,0-13.2,5.7-13.2,13.7C984.4,2167.2,989.9,2172.9,997.6,2172.9z M1040.5,2140.6c11.9-0.1,17.8,8.2,17.2,20.7h-30.1
	c1,7.2,6.2,11.8,13.4,11.8c4.6,0,8.5-1.6,11.4-4.6l3,3.2c-3.5,3.9-8.7,6.2-14.8,6.2c-10.8,0-18.3-7.6-18.3-18.6
	S1029.8,2140.6,1040.5,2140.6z M1027.6,2156.9h25.2c-0.3-7.1-5.1-11.6-12.3-11.6C1033.5,2145.3,1028.4,2149.9,1027.6,2156.9z
	 M1086.8,2140.6c8.8,0,14,5.5,14,14.4v22.8h-5.5v-21.3c0-6.5-3.9-10.4-10.4-10.4c-7.3,0.1-11.8,4.8-12.4,11.8v19.8h-5.5v-36.9h5.5
	v8.1C1075.1,2143.3,1080.1,2140.6,1086.8,2140.6z M1163.9,2134h-16v43.6h-5.6V2134h-16v-5.4h37.6V2134z M1196.4,2140.8l-16.9,42.1
	c-2.3,5.7-6.2,8.6-11.1,8.6c-3.1,0-5.5-0.9-7.8-2.7l2.3-4.5c1.7,1.2,3.4,1.8,5.2,1.8c2.9,0,5.2-1.8,6.7-5.2l1.5-3.4l-15.3-36.6h5.7
	l12.2,30.4l11.7-30.4H1196.4z M1222.9,2140.6c10.4,0,17.7,7.7,17.7,18.8c0,10.9-7.1,18.6-17.6,18.6c-6.6,0-11.6-3-14.4-8.1v21.5
	h-5.5v-50.5h5.5v8C1211.4,2143.6,1216.5,2140.6,1222.9,2140.6z M1221.9,2172.9c7.7,0,13.2-5.7,13.2-13.7c0-7.9-5.5-13.7-13.2-13.7
	c-7.8,0-13.2,5.7-13.2,13.7C1208.7,2167.2,1214.2,2172.9,1221.9,2172.9z M1264.8,2140.6c11.9-0.1,17.8,8.2,17.2,20.7h-30.1
	c1,7.2,6.2,11.8,13.4,11.8c4.6,0,8.5-1.6,11.4-4.6l3,3.2c-3.5,3.9-8.7,6.2-14.8,6.2c-10.8,0-18.3-7.6-18.3-18.6
	S1254,2140.6,1264.8,2140.6z M1251.9,2156.9h25.2c-0.3-7.1-5.1-11.6-12.3-11.6C1257.8,2145.3,1252.7,2149.9,1251.9,2156.9z"/>
<path class="st0" d="M41.6,2350.7h5v17.8c-4.8,3.8-11.6,6.4-18.2,6.4c-14.2,0-25.6-11-25.6-24.8s11.4-24.6,25.8-24.6
	c6.8,0,13.4,2.6,18.1,6.7l-3.2,4.2c-4-3.6-9.4-5.7-14.8-5.7c-11.2,0-20.2,8.6-20.2,19.4c0,10.9,9,19.5,20.2,19.5
	c4.4,0,9.1-1.5,12.9-4.1V2350.7z M64.8,2337.8v8.2c2.4-5.4,7-8.3,13.2-8.4v5.5c-7.8-0.1-12.6,4.7-13.2,12v19.6h-5.5v-36.9H64.8z
	 M100.4,2337.6c10.9,0,18.7,7.6,18.7,18.6c0,11.1-7.8,18.7-18.7,18.7s-18.7-7.6-18.7-18.7C81.7,2345.2,89.5,2337.6,100.4,2337.6z
	 M100.4,2342.6c-7.7,0-13.2,5.6-13.2,13.7c0,8.1,5.5,13.7,13.2,13.7s13.2-5.6,13.2-13.7C113.6,2348.2,108.1,2342.6,100.4,2342.6z
	 M146.2,2367.7l1.5,4.4c-2.6,1.8-5.4,2.7-8.3,2.8c-5.4,0-9.4-3.2-9.4-10.5v-21.1h-5.3v-4.4h5.3v-9.7h5.4v9.7l11.7-0.1v4.5h-11.7
	v20.1c0,4.5,1.8,6.2,4.9,6.2C142.2,2369.6,144.1,2369,146.2,2367.7z M170,2337.6c11.9-0.1,17.8,8.2,17.2,20.7h-30.1
	c1,7.2,6.2,11.8,13.4,11.8c4.6,0,8.5-1.6,11.4-4.6l3,3.2c-3.5,3.9-8.7,6.2-14.8,6.2c-10.9,0-18.3-7.6-18.3-18.6
	S159.2,2337.6,170,2337.6z M157.1,2353.9h25.2c-0.4-7.1-5.1-11.6-12.3-11.6C163,2342.3,157.9,2346.9,157.1,2353.9z M206.4,2337.6
	c4.4,0,8.7,1.3,11.8,3.4l-2.1,4.3c-2.9-1.8-6.6-3-10-3c-4.1,0-7.3,1.5-7.3,4.9c0,8.2,20.6,4,20.6,17.2c0,7.3-6.4,10.5-13.5,10.5
	c-5.2,0-10.6-1.8-14.1-5.2l2.1-4.1c3.1,2.9,7.9,4.7,12.2,4.7s7.8-1.6,7.9-5.2c0.2-8.9-20.4-4.3-20.4-17.4
	C193.5,2340.5,199.6,2337.6,206.4,2337.6z M241.9,2356l-7.8,8.1v10.6h-5.5v-51.9h5.5v33.9l19-18.9h6.4l-13.8,14.3l15.3,22.6h-6.5
	L241.9,2356z"/>
<path class="st0" d="M874.6,2350.7h5v17.8c-4.8,3.8-11.6,6.4-18.2,6.4c-14.2,0-25.5-11-25.5-24.8s11.4-24.6,25.8-24.6
	c6.8,0,13.4,2.6,18.1,6.7l-3.2,4.2c-4-3.6-9.4-5.7-14.8-5.7c-11.2,0-20.2,8.6-20.2,19.4c0,10.9,9,19.5,20.2,19.5
	c4.4,0,9.1-1.5,12.9-4.1V2350.7z M907.3,2337.6c10.9,0,18.7,7.6,18.7,18.6c0,11.1-7.8,18.7-18.7,18.7c-10.9,0-18.7-7.6-18.7-18.7
	C888.6,2345.2,896.4,2337.6,907.3,2337.6z M907.3,2342.6c-7.7,0-13.2,5.6-13.2,13.7c0,8.1,5.5,13.7,13.2,13.7
	c7.7,0,13.2-5.6,13.2-13.7C920.6,2348.2,915,2342.6,907.3,2342.6z M950.6,2337.6c10.9,0,18.7,7.6,18.7,18.6
	c0,11.1-7.8,18.7-18.7,18.7s-18.7-7.6-18.7-18.7C931.9,2345.2,939.7,2337.6,950.6,2337.6z M950.6,2342.6c-7.7,0-13.2,5.6-13.2,13.7
	c0,8.1,5.5,13.7,13.2,13.7s13.2-5.6,13.2-13.7C963.8,2348.2,958.3,2342.6,950.6,2342.6z M1011,2337.8v33c0,10.8-7.4,17.6-18.6,17.6
	c-5.8-0.1-10.6-2-15.1-5.3l2.5-4.2c3.6,3,7.5,4.6,12.4,4.7c8.1,0,13.3-4.9,13.3-12.6v-5.6c-2.6,4.9-7.4,7.7-13.6,7.7
	c-9.9,0-16.8-7.3-16.8-17.8c0-10.3,6.8-17.6,16.7-17.6c6.3,0,11.1,2.8,13.7,7.7v-7.5H1011z M993,2368.4c7.4,0,12.6-5.5,12.6-13
	c0-7.7-5.2-13.1-12.6-13.1c-7.4,0-12.6,5.5-12.7,13.1C980.4,2363,985.5,2368.4,993,2368.4z M1029.2,2374.7h-5.5v-51.9h5.5V2374.7z
	 M1057.4,2337.6c11.9-0.1,17.8,8.2,17.2,20.7h-30.1c1,7.2,6.2,11.8,13.4,11.8c4.5,0,8.5-1.6,11.4-4.6l3,3.2
	c-3.5,3.9-8.7,6.2-14.8,6.2c-10.8,0-18.3-7.6-18.3-18.6S1046.7,2337.6,1057.4,2337.6z M1044.6,2353.9h25.2
	c-0.3-7.1-5.1-11.6-12.3-11.6C1050.4,2342.3,1045.4,2346.9,1044.6,2353.9z M1135.2,2331h-25.6v17.2h22.9v5.4h-22.9v21h-5.6v-49h31.2
	V2331z M1157.7,2337.6c10.9,0,18.7,7.6,18.7,18.6c0,11.1-7.8,18.7-18.7,18.7c-10.9,0-18.7-7.6-18.7-18.7
	C1139,2345.2,1146.8,2337.6,1157.7,2337.6z M1157.7,2342.6c-7.7,0-13.2,5.6-13.2,13.7c0,8.1,5.5,13.7,13.2,13.7
	c7.7,0,13.2-5.6,13.2-13.7C1170.9,2348.2,1165.4,2342.6,1157.7,2342.6z M1205.7,2337.6c8.8,0,14,5.5,14,14.4v22.8h-5.5v-21.3
	c0-6.5-3.9-10.4-10.4-10.4c-7.3,0.1-11.8,4.8-12.4,11.8v19.8h-5.5v-36.9h5.5v8.1C1194,2340.3,1199,2337.6,1205.7,2337.6z
	 M1249.4,2367.7l1.5,4.4c-2.6,1.8-5.4,2.7-8.3,2.8c-5.4,0-9.4-3.2-9.4-10.5v-21.1h-5.3v-4.4h5.3v-9.7h5.4v9.7l11.7-0.1v4.5h-11.7
	v20.1c0,4.5,1.8,6.2,4.9,6.2C1245.4,2369.6,1247.4,2369,1249.4,2367.7z M1269,2337.6c4.4,0,8.7,1.3,11.8,3.4l-2.1,4.3
	c-2.9-1.8-6.6-3-10-3c-4.1,0-7.3,1.5-7.3,4.9c0,8.2,20.6,4,20.6,17.2c0,7.3-6.4,10.5-13.5,10.5c-5.2,0-10.6-1.8-14.1-5.2l2.1-4.1
	c3.2,2.9,7.9,4.7,12.2,4.7s7.8-1.6,7.9-5.2c0.2-8.9-20.4-4.3-20.4-17.4C1256.2,2340.5,1262.2,2337.6,1269,2337.6z"/>
<line class="st1" x1="0" y1="2541.7" x2="1285" y2="2541.7"/>
<path class="st0" d="M1712.5,193.7v28.8c0,12.7-7.7,20.4-20.5,20.4c-12.9,0-20.6-7.7-20.6-20.4v-28.8h5.6v28.8
	c0,9.5,5.7,15.1,15,15.1c9.3,0,14.9-5.5,14.9-15.1v-28.8H1712.5z M1731.2,242.7h-5.5v-51.9h5.5V242.7z M1762.4,235.7l1.5,4.4
	c-2.6,1.8-5.4,2.7-8.3,2.8c-5.4,0-9.4-3.2-9.4-10.5v-21.1h-5.3V207h5.3v-9.7h5.4v9.7l11.7-0.1v4.5h-11.7v20.1c0,4.5,1.8,6.2,4.9,6.2
	C1758.4,237.6,1760.3,237,1762.4,235.7z M1777.6,205.8v8.2c2.5-5.4,7-8.3,13.2-8.4v5.5c-7.8-0.1-12.6,4.7-13.2,12v19.6h-5.5v-36.9
	H1777.6z M1819.3,242.7V237c-2.9,4-7.6,6-13.5,6c-7.6,0-12.5-4.9-12.5-11.3c0-6.4,5.1-10.5,13.8-10.6h12.1v-2.2
	c0-5.4-3.4-8.6-9.9-8.6c-4.1,0-7.8,1.5-11.7,4.2l-2.3-4c4.8-3.1,8.8-5,15-5c9.1,0,14.1,4.8,14.2,12.7l0.1,24.4H1819.3z
	 M1806.8,238.2c6.2,0,11-3.2,12.4-8.3v-4.4h-11.5c-6.2,0-9.4,1.9-9.4,5.9S1801.7,238.2,1806.8,238.2z M1862.4,237.3h21.5v5.3h-27.1
	v-49h5.6V237.3z M1894.8,191.4c2,0,3.6,1.6,3.6,3.8c0,2.2-1.5,3.8-3.6,3.8c-2,0-3.6-1.6-3.6-3.8
	C1891.3,193,1892.8,191.4,1894.8,191.4z M1897.6,242.7h-5.4v-36.9h5.4V242.7z M1943,205.8v33c0,10.8-7.3,17.6-18.5,17.6
	c-5.8-0.1-10.6-2-15.1-5.3l2.5-4.2c3.6,3,7.5,4.6,12.4,4.7c8.1,0,13.3-4.9,13.3-12.6v-5.6c-2.6,4.9-7.3,7.7-13.6,7.7
	c-9.9,0-16.8-7.4-16.8-17.9c0-10.3,6.8-17.6,16.7-17.6c6.3,0,11.1,2.8,13.7,7.7v-7.5H1943z M1924.9,236.4c7.3,0,12.6-5.5,12.6-13
	c0-7.7-5.2-13.1-12.6-13.1c-7.4,0-12.6,5.5-12.7,13.1C1912.3,231,1917.5,236.4,1924.9,236.4z M1975.5,205.6c8.8,0,14,5.5,14,14.4
	v22.8h-5.5v-21.3c0-6.5-3.9-10.4-10.4-10.4c-7.8,0.1-12.5,5.6-12.5,13.5v18.1h-5.5v-51.9h5.5V214
	C1963.7,208.3,1968.7,205.6,1975.5,205.6z M2019.2,235.7l1.5,4.4c-2.6,1.8-5.4,2.7-8.3,2.8c-5.4,0-9.4-3.2-9.4-10.5v-21.1h-5.3V207
	h5.3v-9.7h5.4v9.7l11.7-0.1v4.5h-11.7v20.1c0,4.5,1.8,6.2,4.9,6.2C2015.2,237.6,2017.2,237,2019.2,235.7z"/>
<path class="st0" d="M1686.6,302.4c9.7,0,15.8,4.6,15.8,12.3c0,5-3,8.8-8,10.7c6.4,1.9,10.3,6.3,10.3,12.5c0,8.8-6.9,14-18,14
	c-11.2,0-18.1-5.2-18.1-13.9c0-6.2,4.1-10.7,10.6-12.6c-5.1-2-8.2-5.8-8.2-10.9C1670.9,307,1677,302.4,1686.6,302.4z M1686.6,306.8
	c-6.9,0-10.9,3.1-10.9,8.3s4.1,8.3,10.9,8.3c6.8,0,10.8-3.1,10.8-8.3S1693.4,306.8,1686.6,306.8z M1686.6,328.1
	c-8,0-12.7,3.5-12.7,9.3c0,6.2,4.8,9.7,12.8,9.7c7.9,0,12.7-3.6,12.7-9.7C1699.4,331.6,1694.6,328.1,1686.6,328.1z M1732.1,302.5
	c13,0,20.2,8.8,20.2,24.6s-7.2,24.6-20.2,24.6s-20.2-8.8-20.2-24.6S1719.1,302.5,1732.1,302.5z M1732.1,307.3
	c-9.5,0-14.6,6.6-14.6,19.9c0,13.2,5,19.9,14.6,19.9s14.6-6.7,14.6-19.9C1746.7,313.9,1741.7,307.3,1732.1,307.3z M1780,302.5
	c13,0,20.2,8.8,20.2,24.6s-7.2,24.6-20.2,24.6s-20.2-8.8-20.2-24.6S1767,302.5,1780,302.5z M1780,307.3c-9.5,0-14.6,6.6-14.6,19.9
	c0,13.2,5,19.9,14.6,19.9s14.6-6.7,14.6-19.9C1794.6,313.9,1789.5,307.3,1780,307.3z"/>
<path class="st0" d="M2496.7,290.9h-90l-19.8,43.8h-10.1l69.7-153.8h9.9l70.4,153.8h-10.1L2496.7,290.9z M2492.5,281.6l-41.1-90.2
	l-40.7,90.2H2492.5z M2616.4,334.7l-0.2-22.7c-9.7,15.8-26,22.9-45.8,22.9c-22.7,0-37.8-14.3-37.8-33.7c0-19.1,16.3-30.8,42.7-30.8
	h40.7v-11.2c-0.2-19.4-11.4-31-34.3-31c-14.3,0-26.4,5.7-38.5,15l-4.4-7c13.6-9.9,26.8-16.3,44.2-16.3c27.1,0,41.8,15,42,38.7
	l0.4,76.1H2616.4z M2571.7,326.5c21.3,0,37.4-9.2,44.4-29.3v-18.7h-40c-22.4,0-34.8,7.7-34.8,22.4
	C2541.4,316.2,2553,326.5,2571.7,326.5z"/>
<line class="st1" x1="1665" y1="429.7" x2="2645" y2="429.7"/>
<path class="st0" d="M1678,589.3h21.5v5.3h-27.1v-49h5.6V589.3z M1710.5,543.4c2,0,3.6,1.6,3.6,3.8c0,2.2-1.5,3.8-3.6,3.8
	s-3.6-1.6-3.6-3.8C1706.9,545,1708.4,543.4,1710.5,543.4z M1713.2,594.7h-5.4v-36.9h5.4V594.7z M1758.6,557.8v33
	c0,10.8-7.3,17.6-18.5,17.6c-5.8-0.1-10.6-2-15.1-5.3l2.5-4.2c3.6,3,7.5,4.6,12.4,4.7c8.1,0,13.3-4.9,13.3-12.6v-5.6
	c-2.6,4.9-7.3,7.7-13.6,7.7c-9.9,0-16.8-7.4-16.8-17.9c0-10.3,6.8-17.6,16.7-17.6c6.3,0,11.1,2.8,13.7,7.7v-7.5H1758.6z
	 M1740.5,588.4c7.3,0,12.6-5.5,12.6-13c0-7.7-5.2-13.1-12.6-13.1c-7.4,0-12.6,5.5-12.7,13.1C1727.9,583,1733.1,588.4,1740.5,588.4z
	 M1791.1,557.6c8.8,0,14,5.5,14,14.3v22.8h-5.5v-21.3c0-6.5-3.9-10.4-10.4-10.4c-7.8,0.1-12.5,5.6-12.5,13.5v18.1h-5.5v-51.9h5.5
	V566C1779.3,560.3,1784.3,557.6,1791.1,557.6z M1834.8,587.7l1.5,4.4c-2.6,1.8-5.4,2.7-8.3,2.8c-5.4,0-9.4-3.2-9.4-10.5v-21.1h-5.3
	V559h5.3v-9.7h5.4v9.7l11.7-0.1v4.5H1824v20.1c0,4.5,1.8,6.2,4.9,6.2C1830.8,589.6,1832.8,589,1834.8,587.7z"/>
<path class="st0" d="M1686.6,654.4c9.7,0,15.8,4.6,15.8,12.3c0,5-3,8.8-8,10.7c6.4,1.9,10.3,6.3,10.3,12.5c0,8.8-6.9,14-18,14
	c-11.2,0-18.1-5.2-18.1-13.9c0-6.2,4.1-10.7,10.6-12.6c-5.1-2-8.2-5.8-8.2-10.9C1670.9,659,1677,654.4,1686.6,654.4z M1686.6,658.8
	c-6.9,0-10.9,3.1-10.9,8.3s4.1,8.3,10.9,8.3c6.8,0,10.8-3.1,10.8-8.3S1693.4,658.8,1686.6,658.8z M1686.6,680.1
	c-8,0-12.7,3.5-12.7,9.3c0,6.2,4.8,9.7,12.8,9.7c7.9,0,12.7-3.6,12.7-9.7C1699.4,683.6,1694.6,680.1,1686.6,680.1z M1732.1,654.5
	c13,0,20.2,8.8,20.2,24.6s-7.2,24.6-20.2,24.6s-20.2-8.8-20.2-24.6S1719.1,654.5,1732.1,654.5z M1732.1,659.3
	c-9.5,0-14.6,6.6-14.6,19.9c0,13.2,5,19.9,14.6,19.9s14.6-6.7,14.6-19.9C1746.7,665.9,1741.7,659.3,1732.1,659.3z M1780,654.5
	c13,0,20.2,8.8,20.2,24.6s-7.2,24.6-20.2,24.6s-20.2-8.8-20.2-24.6S1767,654.5,1780,654.5z M1780,659.3c-9.5,0-14.6,6.6-14.6,19.9
	c0,13.2,5,19.9,14.6,19.9s14.6-6.7,14.6-19.9C1794.6,665.9,1789.5,659.3,1780,659.3z"/>
<path class="st0" d="M2488.8,657.7h-84l-17.2,38.9h-18.7l69.1-154h18.3l68.9,154h-19.1L2488.8,657.7z M2481.3,640.8l-34.8-78.1
	l-34.3,78.1H2481.3z M2609.9,696.7v-17.8c-9.2,12.5-24,18.7-42.5,18.7c-24,0-39.4-15.4-39.4-35.4c0-20.2,16.1-33,43.3-33.2h38.1
	v-6.8c0-16.9-10.6-27.1-31-27.1c-12.8,0-24.6,4.8-36.7,13.2l-7.3-12.5c15-9.9,27.5-15.6,47.3-15.6c28.6,0,44.4,15.2,44.7,40
	l0.2,76.6H2609.9z M2570.8,682.6c19.6,0,34.5-9.9,38.9-26v-13.9h-36.1c-19.4,0-29.5,5.9-29.5,18.7S2554.5,682.6,2570.8,682.6z"/>
<line class="st1" x1="1665" y1="781.7" x2="2645" y2="781.7"/>
<path class="st0" d="M1704.5,946.7l-10.2-15.6c-1,0.1-2.2,0.1-3.3,0.1h-13v15.5h-5.6v-49h18.6c12.2,0,19.3,6,19.3,16.4
	c0,8.1-3.9,13.6-11,15.9l11.5,16.7H1704.5z M1678,925.8h13c8.9,0,13.9-3.9,13.9-11.6c0-7.4-5-11.2-13.9-11.2h-13V925.8z
	 M1736.8,909.6c11.9-0.1,17.8,8.2,17.2,20.7h-30.1c1,7.2,6.2,11.8,13.4,11.8c4.5,0,8.5-1.6,11.4-4.6l3,3.2
	c-3.5,3.9-8.7,6.2-14.8,6.2c-10.8,0-18.3-7.6-18.3-18.6S1726.1,909.6,1736.8,909.6z M1723.9,925.9h25.2c-0.3-7.1-5.1-11.5-12.3-11.5
	C1729.8,914.3,1724.8,918.9,1723.9,925.9z M1795.5,909.8v33c0,10.8-7.3,17.6-18.6,17.6c-5.8-0.1-10.6-2-15.1-5.3l2.5-4.2
	c3.6,3,7.5,4.6,12.4,4.7c8.1,0,13.3-4.9,13.3-12.6v-5.6c-2.6,4.9-7.4,7.7-13.6,7.7c-9.9,0-16.8-7.3-16.8-17.8
	c0-10.3,6.8-17.6,16.7-17.6c6.3,0,11.1,2.8,13.7,7.7v-7.5H1795.5z M1777.5,940.4c7.4,0,12.6-5.5,12.6-13c0-7.7-5.2-13.1-12.6-13.1
	c-7.4,0-12.6,5.5-12.7,13.1C1764.9,935,1770,940.4,1777.5,940.4z M1839.9,909.8v36.9h-5.5v-8.3c-2.5,5.7-7.4,8.5-14,8.5
	c-8.6,0-13.8-5.5-13.8-14.3v-22.8h5.5V931c0,6.5,3.8,10.4,10.2,10.4c7.6-0.1,12.1-5.7,12.1-13.5v-18.1H1839.9z M1859,946.7h-5.5
	v-51.9h5.5V946.7z M1895.6,946.7V941c-2.9,4-7.6,6-13.5,6c-7.6,0-12.5-4.9-12.5-11.3c0-6.4,5.1-10.5,13.8-10.6h12.1v-2.2
	c0-5.4-3.4-8.6-9.9-8.6c-4.1,0-7.8,1.5-11.7,4.2l-2.3-4c4.8-3.2,8.8-5,15.1-5c9.1,0,14.1,4.8,14.2,12.7l0.1,24.4H1895.6z
	 M1883.1,942.2c6.2,0,11-3.2,12.4-8.3v-4.4H1884c-6.2,0-9.4,1.9-9.4,6C1874.7,939.5,1877.9,942.2,1883.1,942.2z M1918.6,909.8v8.2
	c2.4-5.4,7-8.3,13.2-8.4v5.5c-7.8-0.1-12.6,4.7-13.2,12v19.6h-5.5v-36.9H1918.6z"/>
<path class="st0" d="M1686.6,1006.4c9.7,0,15.8,4.6,15.8,12.3c0,5-3,8.8-8,10.7c6.4,1.9,10.3,6.3,10.3,12.5c0,8.8-6.9,14-18,14
	c-11.2,0-18.1-5.2-18.1-13.9c0-6.2,4.1-10.7,10.6-12.6c-5.1-2-8.2-5.8-8.2-10.9C1670.9,1011,1677,1006.4,1686.6,1006.4z
	 M1686.6,1010.8c-6.9,0-10.9,3.1-10.9,8.3c0,5.3,4.1,8.3,10.9,8.3c6.8,0,10.8-3.1,10.8-8.3
	C1697.5,1013.9,1693.4,1010.8,1686.6,1010.8z M1686.6,1032.1c-8,0-12.7,3.5-12.7,9.3c0,6.2,4.8,9.7,12.8,9.7
	c7.9,0,12.7-3.6,12.7-9.7C1699.4,1035.6,1694.6,1032.1,1686.6,1032.1z M1732.1,1006.5c13,0,20.2,8.8,20.2,24.6
	c0,15.8-7.2,24.6-20.2,24.6s-20.2-8.8-20.2-24.6C1711.9,1015.3,1719.1,1006.5,1732.1,1006.5z M1732.1,1011.3
	c-9.5,0-14.6,6.6-14.6,19.9c0,13.2,5,19.9,14.6,19.9s14.6-6.7,14.6-19.9C1746.7,1017.9,1741.7,1011.3,1732.1,1011.3z M1780,1006.5
	c13,0,20.2,8.8,20.2,24.6c0,15.8-7.2,24.6-20.2,24.6s-20.2-8.8-20.2-24.6C1759.8,1015.3,1767,1006.5,1780,1006.5z M1780,1011.3
	c-9.5,0-14.6,6.6-14.6,19.9c0,13.2,5,19.9,14.6,19.9s14.6-6.7,14.6-19.9C1794.6,1017.9,1789.5,1011.3,1780,1011.3z"/>
<path class="st0" d="M2481.7,1013.9H2404l-14.7,34.8h-27.1l68-154h26.6l67.3,154h-27.7L2481.7,1013.9z M2471.8,990.8l-29-68.4
	l-29,68.4H2471.8z M2604.5,1048.7v-14.3c-8.4,10.3-21.8,15.4-38.7,15.4c-25.3,0-41.1-15.6-41.1-36.3c0-21.3,16.1-35,44.2-35.2h35.4
	v-3.5c0-14.7-9.5-23.5-27.9-23.5c-11.2,0-22.9,4-34.5,11.9l-10.3-17.6c16.3-9.7,28.2-14.7,50.4-14.7c30.1,0,47.1,15.4,47.3,41.1
	l0.2,76.8H2604.5z M2571.1,1029.7c18,0,31.9-9.5,33.2-22.2v-10.8h-31.7c-16.5,0-24.2,4.4-24.2,15.6
	C2548.4,1022.9,2557,1029.7,2571.1,1029.7z"/>
<line class="st1" x1="1665" y1="1133.7" x2="2645" y2="1133.7"/>
<path class="st0" d="M1687,1249.4c5.7,0,11.5,1.8,15.5,4.5l-2.4,5.2c-4.4-2.9-9.6-4.1-13.5-4.1c-6.3,0-10.4,2.4-10.4,6.5
	c0,12.6,27.6,6,27.5,23.8c0,8.2-7.2,13.4-17.7,13.4c-7.1,0-14.1-3.1-18.8-7.5l2.5-5c4.6,4.4,10.8,6.9,16.3,6.9
	c7.1,0,11.5-2.9,11.5-7.6c0.1-12.9-27.5-6-27.5-23.6C1670,1254.4,1676.8,1249.4,1687,1249.4z M1729,1261.6
	c11.9-0.1,17.8,8.2,17.2,20.7h-30.1c1,7.2,6.2,11.8,13.4,11.8c4.6,0,8.5-1.6,11.4-4.6l3,3.2c-3.5,3.9-8.7,6.2-14.8,6.2
	c-10.8,0-18.3-7.6-18.3-18.6S1718.3,1261.6,1729,1261.6z M1716.1,1277.9h25.2c-0.3-7.1-5.1-11.5-12.3-11.5
	C1722,1266.3,1717,1270.9,1716.1,1277.9z M1802.8,1261.6c8.6,0,13.7,5.5,13.7,14.3v22.8h-5.5v-21.3c0-6.6-3.8-10.4-10.2-10.4
	c-7.6,0.2-12,5.7-12,13.6v18.1h-5.5v-21.3c0-6.6-3.8-10.4-10.2-10.4c-7.6,0.2-12.1,5.7-12.1,13.6v18.1h-5.4v-36.9h5.4v8.3
	c2.4-5.7,7.4-8.5,14.1-8.5c6.9,0,11.7,3.6,13.2,9.7C1790.6,1264.7,1795.8,1261.6,1802.8,1261.6z M1831.3,1247.4c2,0,3.6,1.6,3.6,3.8
	c0,2.2-1.5,3.8-3.6,3.8c-2,0-3.6-1.6-3.6-3.8C1827.8,1249,1829.3,1247.4,1831.3,1247.4z M1834.1,1298.7h-5.4v-36.9h5.4V1298.7z
	 M1867.3,1249.7h20.6c9.9,0,15.8,4.6,15.8,12.2c0,5.7-3.3,9.9-9,11.1c7.1,1,11.2,5.7,11.2,12.4c0,8.3-6.6,13.3-17.6,13.3h-21V1249.7
	z M1872.9,1255v15.8h14.8c6.6,0,10.4-2.9,10.4-8c0-5-3.8-7.8-10.4-7.8H1872.9z M1872.9,1276.1v17.2h14.8c8,0,12.6-3.2,12.6-8.8
	c0-5.3-4.6-8.5-12.6-8.5H1872.9z M1931.6,1261.6c10.9,0,18.7,7.6,18.7,18.6c0,11.1-7.8,18.7-18.7,18.7s-18.7-7.6-18.7-18.7
	C1912.9,1269.2,1920.7,1261.6,1931.6,1261.6z M1931.6,1266.6c-7.7,0-13.2,5.6-13.2,13.7c0,8.1,5.5,13.7,13.2,13.7
	s13.2-5.6,13.2-13.7C1944.9,1272.2,1939.3,1266.6,1931.6,1266.6z M1965.7,1298.7h-5.5v-51.9h5.5V1298.7z M2013.3,1246.7v51.9h-5.5
	v-7.9c-2.7,5.2-7.8,8.2-14.3,8.2c-10.5,0-17.8-7.8-17.8-18.8c0-11.1,7.3-18.7,17.7-18.7c6.6,0,11.7,3,14.4,8.3v-23H2013.3z
	 M1994.5,1294c7.8,0,13.3-5.7,13.3-13.7c0-8.1-5.5-13.9-13.3-13.9c-7.8,0-13.4,5.8-13.4,13.9C1981.2,1288.3,1986.7,1294,1994.5,1294
	z"/>
<path class="st0" d="M1686.6,1358.4c9.7,0,15.8,4.6,15.8,12.3c0,5-3,8.8-8,10.7c6.4,1.9,10.3,6.3,10.3,12.5c0,8.8-6.9,14-18,14
	c-11.2,0-18.1-5.2-18.1-13.9c0-6.2,4.1-10.7,10.6-12.6c-5.1-2-8.2-5.8-8.2-10.8C1670.9,1363,1677,1358.4,1686.6,1358.4z
	 M1686.6,1362.8c-6.9,0-10.9,3.1-10.9,8.3s4.1,8.3,10.9,8.3c6.8,0,10.8-3.1,10.8-8.3S1693.4,1362.8,1686.6,1362.8z M1686.6,1384.1
	c-8,0-12.7,3.5-12.7,9.3c0,6.2,4.8,9.7,12.8,9.7c7.9,0,12.7-3.6,12.7-9.7C1699.4,1387.6,1694.6,1384.1,1686.6,1384.1z
	 M1732.1,1358.5c13,0,20.2,8.8,20.2,24.6s-7.2,24.6-20.2,24.6s-20.2-8.8-20.2-24.6S1719.1,1358.5,1732.1,1358.5z M1732.1,1363.3
	c-9.5,0-14.6,6.6-14.6,19.9c0,13.2,5,19.9,14.6,19.9s14.6-6.7,14.6-19.9C1746.7,1369.9,1741.7,1363.3,1732.1,1363.3z M1780,1358.5
	c13,0,20.2,8.8,20.2,24.6s-7.2,24.6-20.2,24.6s-20.2-8.8-20.2-24.6S1767,1358.5,1780,1358.5z M1780,1363.3
	c-9.5,0-14.6,6.6-14.6,19.9c0,13.2,5,19.9,14.6,19.9s14.6-6.7,14.6-19.9C1794.6,1369.9,1789.5,1363.3,1780,1363.3z"/>
<path class="st0" d="M2473.6,1360.7h-71.3l-12.1,29.9h-35.9l66.9-154h35.9l65.8,154h-37.2L2473.6,1360.7z M2462.4,1332.8l-24.2-59.8
	l-24.4,59.8H2462.4z M2598.1,1390.7v-13.9c-7.9,9.9-20.7,15.4-37.2,15.4c-25.3,0-40.7-15.4-40.7-37c0-22.2,16.1-35.4,45.1-35.6h32.6
	v-2.2c0-12.5-8.4-19.8-24.6-19.8c-10.6,0-22.9,3.5-35.2,10.3l-10.6-23.3c17.6-8.8,32.8-13.6,53.5-13.6c31.7,0,49.9,15.8,50.2,42.5
	l0.2,77.2H2598.1z M2570.3,1368c14.3,0,25.5-7.7,27.5-17.8v-10.6h-26.6c-13,0-19.4,4-19.4,13.4
	C2551.9,1362.1,2558.9,1368,2570.3,1368z"/>
<line class="st1" x1="1665" y1="1485.7" x2="2645" y2="1485.7"/>
<path class="st0" d="M1672.4,1601.7h20.6c9.9,0,15.8,4.6,15.8,12.2c0,5.7-3.3,9.9-9,11.1c7.1,1,11.2,5.7,11.2,12.4
	c0,8.3-6.6,13.3-17.6,13.3h-21V1601.7z M1678,1607v15.8h14.8c6.6,0,10.4-2.9,10.4-8c0-5-3.8-7.8-10.4-7.8H1678z M1678,1628.1v17.2
	h14.8c8,0,12.6-3.2,12.6-8.8c0-5.3-4.6-8.5-12.6-8.5H1678z M1736.7,1613.6c10.9,0,18.7,7.6,18.7,18.6c0,11.1-7.8,18.7-18.7,18.7
	s-18.7-7.6-18.7-18.7C1718.1,1621.2,1725.8,1613.6,1736.7,1613.6z M1736.7,1618.6c-7.7,0-13.2,5.6-13.2,13.7
	c0,8.1,5.5,13.7,13.2,13.7s13.2-5.6,13.2-13.7C1750,1624.2,1744.4,1618.6,1736.7,1618.6z M1770.8,1650.7h-5.5v-51.9h5.5V1650.7z
	 M1818.4,1598.7v51.9h-5.5v-7.9c-2.7,5.2-7.8,8.2-14.4,8.2c-10.5,0-17.8-7.8-17.8-18.8c0-11.1,7.3-18.7,17.7-18.7
	c6.6,0,11.7,3,14.4,8.3v-23H1818.4z M1799.6,1646c7.8,0,13.3-5.7,13.3-13.7c0-8.1-5.5-13.9-13.3-13.9c-7.8,0-13.4,5.8-13.4,13.9
	C1786.3,1640.3,1791.8,1646,1799.6,1646z"/>
<path class="st0" d="M1686.6,1710.4c9.7,0,15.8,4.6,15.8,12.3c0,5-3,8.8-8,10.7c6.4,1.9,10.3,6.3,10.3,12.5c0,8.8-6.9,14-18,14
	c-11.2,0-18.1-5.2-18.1-13.9c0-6.2,4.1-10.7,10.6-12.6c-5.1-2-8.2-5.8-8.2-10.8C1670.9,1715,1677,1710.4,1686.6,1710.4z
	 M1686.6,1714.8c-6.9,0-10.9,3.1-10.9,8.3s4.1,8.3,10.9,8.3c6.8,0,10.8-3.1,10.8-8.3S1693.4,1714.8,1686.6,1714.8z M1686.6,1736.1
	c-8,0-12.7,3.5-12.7,9.3c0,6.2,4.8,9.7,12.8,9.7c7.9,0,12.7-3.6,12.7-9.7C1699.4,1739.6,1694.6,1736.1,1686.6,1736.1z
	 M1732.1,1710.5c13,0,20.2,8.8,20.2,24.6s-7.2,24.6-20.2,24.6s-20.2-8.8-20.2-24.6S1719.1,1710.5,1732.1,1710.5z M1732.1,1715.3
	c-9.5,0-14.6,6.6-14.6,19.9c0,13.2,5,19.9,14.6,19.9s14.6-6.7,14.6-19.9C1746.7,1721.9,1741.7,1715.3,1732.1,1715.3z M1780,1710.5
	c13,0,20.2,8.8,20.2,24.6s-7.2,24.6-20.2,24.6s-20.2-8.8-20.2-24.6S1767,1710.5,1780,1710.5z M1780,1715.3
	c-9.5,0-14.6,6.6-14.6,19.9c0,13.2,5,19.9,14.6,19.9s14.6-6.7,14.6-19.9C1794.6,1721.9,1789.5,1715.3,1780,1715.3z"/>
<path class="st0" d="M2469.7,1724.3h-67.3l-11.2,28.4h-40.3l66.4-154h40.3l64.9,154h-41.8L2469.7,1724.3z M2458.3,1694.6l-22-57
	l-22.4,57H2458.3z M2580.9,1632.3c32.6,0,51.5,16.1,51.7,42.9v77.4h-37.2V1739c-7.7,10.1-20.2,15.4-36.3,15.4
	c-25.3,0-40.7-15.4-40.7-37.2c0-22.4,16.1-35.6,45.5-35.9h31.2v-1.8c0-11.7-7.7-18.7-23.1-18.7c-9.9,0-22.9,3.5-35.4,9.9l-10.8-25.1
	C2544.4,1637.2,2561.1,1632.3,2580.9,1632.3z M2570.8,1728.7c11.9,0,22-6.6,24.4-16.3v-10.6h-24c-11.4,0-17.2,4-17.2,12.8
	C2554.1,1723.2,2560.2,1728.7,2570.8,1728.7z"/>
<line class="st1" x1="1665" y1="1837.7" x2="2645" y2="1837.7"/>
<path class="st0" d="M1705.7,1959H1678v16.1h24.7v5.4H1678v16.8h28.6v5.3h-34.2v-49h33.2V1959z M1729.1,1979.8l9.9-14h6l-12.3,17.9
	l13.2,19h-6.4l-10.5-15.1l-10.8,15.1h-6.2l13.4-19l-12.5-17.9h6.3L1729.1,1979.8z M1771.8,1995.7l1.5,4.4c-2.6,1.8-5.4,2.7-8.3,2.8
	c-5.4,0-9.4-3.2-9.4-10.5v-21.1h-5.3v-4.4h5.3v-9.7h5.4v9.7l11.7-0.1v4.5H1761v20.1c0,4.5,1.8,6.2,4.9,6.2
	C1767.8,1997.6,1769.8,1997,1771.8,1995.7z M1787,1965.8v8.2c2.4-5.4,7-8.3,13.2-8.4v5.5c-7.8-0.1-12.6,4.7-13.2,12v19.6h-5.5v-36.9
	H1787z M1828.7,2002.7v-5.7c-2.9,4-7.6,5.9-13.5,5.9c-7.6,0-12.5-4.9-12.5-11.3c0-6.4,5.1-10.5,13.8-10.6h12.1v-2.2
	c0-5.4-3.4-8.6-9.9-8.6c-4.1,0-7.8,1.5-11.7,4.2l-2.3-4c4.8-3.2,8.8-5,15.1-5c9.1,0,14.1,4.8,14.2,12.7l0.1,24.4H1828.7z
	 M1816.3,1998.2c6.2,0,11-3.1,12.4-8.3v-4.4h-11.5c-6.2,0-9.4,1.9-9.4,5.9S1811.1,1998.2,1816.3,1998.2z M1866.2,1953.7h20.7
	c9.9,0,15.8,4.6,15.8,12.2c0,5.7-3.3,9.9-9,11.1c7.1,1.1,11.2,5.7,11.2,12.4c0,8.3-6.6,13.3-17.6,13.3h-21V1953.7z M1871.8,1959
	v15.8h14.8c6.6,0,10.4-2.9,10.4-8c0-5-3.8-7.8-10.4-7.8H1871.8z M1871.8,1980.1v17.2h14.8c8,0,12.6-3.1,12.6-8.8
	c0-5.3-4.6-8.5-12.6-8.5H1871.8z M1930.5,1965.6c10.9,0,18.7,7.6,18.7,18.6c0,11.1-7.8,18.7-18.7,18.7c-10.9,0-18.7-7.6-18.7-18.7
	C1911.8,1973.2,1919.6,1965.6,1930.5,1965.6z M1930.5,1970.6c-7.7,0-13.2,5.6-13.2,13.7c0,8.1,5.5,13.7,13.2,13.7
	c7.7,0,13.2-5.6,13.2-13.7C1943.8,1976.2,1938.2,1970.6,1930.5,1970.6z M1964.6,2002.7h-5.5v-51.9h5.5V2002.7z M2012.2,1950.7v51.9
	h-5.5v-7.9c-2.7,5.2-7.8,8.2-14.3,8.2c-10.5,0-17.8-7.8-17.8-18.8c0-11.1,7.3-18.7,17.7-18.7c6.6,0,11.7,3,14.4,8.3v-23H2012.2z
	 M1993.4,1998c7.8,0,13.3-5.7,13.3-13.7c0-8-5.5-13.9-13.3-13.9c-7.8,0-13.4,5.8-13.4,13.9C1980.1,1992.3,1985.6,1998,1993.4,1998z"
	/>
<path class="st0" d="M1686.6,2062.4c9.7,0,15.8,4.6,15.8,12.3c0,5-3,8.8-8,10.7c6.4,1.9,10.3,6.3,10.3,12.5c0,8.8-6.9,14-18,14
	c-11.2,0-18.1-5.2-18.1-13.9c0-6.2,4.1-10.7,10.6-12.6c-5.1-2-8.2-5.8-8.2-10.9C1670.9,2067,1677,2062.4,1686.6,2062.4z
	 M1686.6,2066.8c-6.9,0-10.9,3.1-10.9,8.3s4.1,8.3,10.9,8.3c6.8,0,10.8-3.1,10.8-8.3S1693.4,2066.8,1686.6,2066.8z M1686.6,2088.1
	c-8,0-12.7,3.5-12.7,9.3c0,6.2,4.8,9.7,12.8,9.7c7.9,0,12.7-3.6,12.7-9.7C1699.4,2091.6,1694.6,2088.1,1686.6,2088.1z
	 M1732.1,2062.5c13,0,20.2,8.8,20.2,24.6s-7.2,24.6-20.2,24.6s-20.2-8.8-20.2-24.6S1719.1,2062.5,1732.1,2062.5z M1732.1,2067.3
	c-9.5,0-14.6,6.6-14.6,19.9c0,13.2,5,19.9,14.6,19.9s14.6-6.6,14.6-19.9C1746.7,2073.9,1741.7,2067.3,1732.1,2067.3z M1780,2062.5
	c13,0,20.2,8.8,20.2,24.6s-7.2,24.6-20.2,24.6s-20.2-8.8-20.2-24.6S1767,2062.5,1780,2062.5z M1780,2067.3
	c-9.5,0-14.6,6.6-14.6,19.9c0,13.2,5,19.9,14.6,19.9s14.6-6.6,14.6-19.9C1794.6,2073.9,1789.5,2067.3,1780,2067.3z"/>
<path class="st0" d="M2463.8,2070h-62.3l-9.2,24.6h-47.1l65.8-154.2h47.1l63.6,154.2h-48.8L2463.8,2070z M2451.7,2036.6l-18.5-50.4
	l-18.9,50.4H2451.7z M2580.9,1973.2c33.7,0,53.7,16.1,53.7,43.8v77.7H2591v-13.2c-7.3,9.7-19.1,15.2-35,15.2
	c-25.5,0-40.5-15.2-40.5-37.6c0-23.1,16.1-35.9,46.2-36.3h29.3v-0.4c0-9.9-7-15.8-20.7-15.8c-9.5,0-22.9,2.9-36.1,8.6l-11-29.5
	C2542.8,1977.6,2562.2,1973.2,2580.9,1973.2z M2570.8,2067.6c9,0,16.9-4.8,20.2-12.3v-10.8h-20.2c-8.8,0-13.4,3.7-13.4,11.2
	S2562.2,2067.6,2570.8,2067.6z"/>
<line class="st1" x1="1665" y1="2189.7" x2="2645" y2="2189.7"/>
<path class="st0" d="M1672.4,2305.7h20.6c9.9,0,15.8,4.6,15.8,12.2c0,5.7-3.3,9.9-9,11.1c7.1,1.1,11.2,5.7,11.2,12.4
	c0,8.3-6.6,13.3-17.6,13.3h-21V2305.7z M1678,2311v15.8h14.8c6.6,0,10.4-2.9,10.4-8c0-5-3.8-7.8-10.4-7.8H1678z M1678,2332.1v17.2
	h14.8c8,0,12.6-3.1,12.6-8.8c0-5.3-4.6-8.5-12.6-8.5H1678z M1727.6,2354.7h-5.5v-51.9h5.5V2354.7z M1764.1,2354.7v-5.7
	c-2.9,4-7.6,5.9-13.5,5.9c-7.6,0-12.5-4.9-12.5-11.3c0-6.4,5.1-10.5,13.8-10.6h12.1v-2.2c0-5.4-3.4-8.6-9.9-8.6
	c-4.1,0-7.8,1.5-11.7,4.2l-2.3-4c4.8-3.2,8.8-5,15.1-5c9.1,0,14.1,4.8,14.2,12.7l0.1,24.4H1764.1z M1751.7,2350.2
	c6.2,0,11-3.1,12.4-8.3v-4.4h-11.5c-6.2,0-9.4,1.9-9.4,5.9S1746.5,2350.2,1751.7,2350.2z M1796.2,2317.6c6-0.1,10.9,2,14.2,5.5
	l-3,3.9c-2.8-2.7-6.5-4.3-11-4.3c-7.6,0-13.1,5.5-13.1,13.6c0,8,5.5,13.6,13.1,13.6c4.8,0,8.8-1.7,11.4-4.8l3.2,3.4
	c-3.3,4-8.4,6.4-14.8,6.4c-10.7,0-18.3-7.6-18.3-18.6S1785.6,2317.6,1796.2,2317.6z M1834.5,2336l-7.8,8.1v10.6h-5.5v-51.9h5.5v33.9
	l19-18.9h6.4l-13.8,14.3l15.3,22.6h-6.5L1834.5,2336z"/>
<path class="st0" d="M1686.6,2414.4c9.7,0,15.8,4.6,15.8,12.3c0,5-3,8.8-8,10.7c6.4,1.9,10.3,6.3,10.3,12.5c0,8.8-6.9,14-18,14
	c-11.2,0-18.1-5.2-18.1-13.9c0-6.2,4.1-10.7,10.6-12.6c-5.1-2-8.2-5.8-8.2-10.9C1670.9,2419,1677,2414.4,1686.6,2414.4z
	 M1686.6,2418.8c-6.9,0-10.9,3.1-10.9,8.3s4.1,8.3,10.9,8.3c6.8,0,10.8-3.1,10.8-8.3S1693.4,2418.8,1686.6,2418.8z M1686.6,2440.1
	c-8,0-12.7,3.5-12.7,9.3c0,6.2,4.8,9.7,12.8,9.7c7.9,0,12.7-3.6,12.7-9.7C1699.4,2443.6,1694.6,2440.1,1686.6,2440.1z
	 M1732.1,2414.5c13,0,20.2,8.8,20.2,24.6s-7.2,24.6-20.2,24.6s-20.2-8.8-20.2-24.6S1719.1,2414.5,1732.1,2414.5z M1732.1,2419.3
	c-9.5,0-14.6,6.6-14.6,19.9c0,13.2,5,19.9,14.6,19.9s14.6-6.6,14.6-19.9C1746.7,2425.9,1741.7,2419.3,1732.1,2419.3z M1780,2414.5
	c13,0,20.2,8.8,20.2,24.6s-7.2,24.6-20.2,24.6s-20.2-8.8-20.2-24.6S1767,2414.5,1780,2414.5z M1780,2419.3
	c-9.5,0-14.6,6.6-14.6,19.9c0,13.2,5,19.9,14.6,19.9s14.6-6.6,14.6-19.9C1794.6,2425.9,1789.5,2419.3,1780,2419.3z"/>
<path class="st0" d="M2458.9,2434.9h-57.9l-7.9,21.8h-52.4l65.1-154.2h52.4l62.7,154.2h-54.3L2458.9,2434.9z M2446.4,2398.4
	l-15.8-45.1l-16.3,45.1H2446.4z M2580.6,2334.1c34.8,0,55.4,16.3,55.4,44.7v77.9h-48.6v-13c-7,9.7-18.5,15.2-33.9,15.2
	c-25.5,0-40.3-15-40.3-37.8c0-23.8,16.1-36.3,46.6-36.7h27.5c-0.2-8.4-6.6-13.2-18.7-13.2c-9,0-22.9,2.6-36.5,7.7l-11-33
	C2541.6,2338.3,2562.7,2334.1,2580.6,2334.1z M2570.7,2427.4c6.4,0,12.8-3.3,16.7-9.2v-11h-17.2c-6.8,0-10.6,3.3-10.6,9.7
	C2559.7,2423.4,2563.6,2427.4,2570.7,2427.4z"/>
<line class="st1" x1="1665" y1="2541.7" x2="2645" y2="2541.7"/>
</svg>
