<?xml version="1.0" encoding="utf-8"?>
<!-- Generator: Adobe Illustrator 28.0.0, SVG Export Plug-In . SVG Version: 6.00 Build 0)  -->
<svg version="1.1" id="Layer_1" xmlns="http://www.w3.org/2000/svg" xmlns:xlink="http://www.w3.org/1999/xlink" x="0px" y="0px"
	 viewBox="0 0 249 249" style="enable-background:new 0 0 249 249;" xml:space="preserve">
<style type="text/css">
	.st0{clip-path:url(#SVGID_00000004507202329742000930000011360479692062540975_);}
</style>
<g>
	<defs>
		<rect id="SVGID_1_" x="0" y="0" width="249" height="249"/>
	</defs>
	<clipPath id="SVGID_00000071535117776330737180000009202110352670320038_">
		<use xlink:href="#SVGID_1_"  style="overflow:visible;"/>
	</clipPath>
	<g style="clip-path:url(#SVGID_00000071535117776330737180000009202110352670320038_);">
		<path d="M116.2,244C57.9,239.2,10.8,192.9,5.1,134.5c-3.6-37,9.3-71.1,32.3-95.8C13.7,61.7-0.9,94.3,0,130.1
			C1.8,195.3,55.3,248.2,120.6,249c35.9,0.4,68.3-14.6,90.9-38.7C187.2,233.7,153.3,247.1,116.2,244z"/>
		<path d="M211.5,210.3c0.3-0.3,0.6-0.6,1.1-1h-0.1C212.2,209.7,211.8,210,211.5,210.3z"/>
		<path d="M132.8,5c58.3,4.9,105.4,51.3,111.1,109.5c2.9,29-4.4,56.2-18.8,78.4c0.2,0.4,0.4,0.7,0.6,1.1c15.3-21,24.1-47,23.3-75.1
			C247.3,53.6,193.7,0.9,128.4,0C92.4-0.4,60.1,14.6,37.5,38.7C61.8,15.3,95.8,1.9,132.8,5z"/>
		<path d="M224.3,196c-0.2-0.3-0.4-0.6-0.5-1c-0.5-1-1.2-2-1.7-3.1l-56-132.3c-1.5-5.1,0-6.8,7.8-6.9v-2h-37.5v2.1
			c0.5,0,1.1,0.1,1.5,0.1c3.1,0.6,6.1,2.3,8.6,4.5c1.9,1.8,3.4,3.8,4.3,6c2.1,5.4,0.2,11.2-1.7,16.4l-21.2,54.7L96.6,61.1
			c-1.9-5.7-0.5-7.5,7.6-7.6v-2H66.6v2c0.3,0,0.5,0,0.7,0c3.1,0.6,6,2.3,8.5,4.5c1.9,1.8,3.4,3.8,4.3,6c2.1,5.2,0.4,10.9-1.4,16
			l-31,80.1c0,0.1-0.1,0.2-0.1,0.2l-0.4,1.2c-1.9,5.5-2.5,11.4-1.4,17.5c2.7,14.4,14.6,25.5,29.1,27.3c1.4,0.2,2.9,0.2,4.2,0.2
			c13.6,0,25.9-8.1,31.2-20.7l11.2-29.3l14.7,35c4.2,10.5,5.3,13.3-6,13.3h-4.4v2h48.1v-2h-2.4c-11.3,0-14.3-3.3-19.6-13.3l-22.9-54
			l26-66.9l14.5,34.1h0.1l36.9,86.8c4.2,10.5,5.3,13.3-6,13.3H196v2h18.3h0.3h19.2c0.5-0.8,1.2-1.6,1.7-2.4
			C230.2,203.8,227.5,201.1,224.3,196z M108.3,185.3l0.6-1.2c-5,11.6-16.3,19.2-29,19.2c-17.3,0-31.5-14.2-31.5-31.5
			c0-4.1,0.7-8,2.2-11.8L85,70.8l0.6,1.5l14.2,33.4h0.1l20.5,48L108.3,185.3z"/>
	</g>
</g>
</svg>
