<?xml version="1.0" encoding="utf-8"?>
<!-- Generator: Adobe Illustrator 28.0.0, SVG Export Plug-In . SVG Version: 6.00 Build 0)  -->
<svg version="1.1" id="Layer_1" xmlns="http://www.w3.org/2000/svg" xmlns:xlink="http://www.w3.org/1999/xlink" x="0px" y="0px"
	 viewBox="0 0 764.9 768" style="enable-background:new 0 0 764.9 768;" xml:space="preserve">
<style type="text/css">
	.st0{fill:#212121;}
</style>
<g>
	<path class="st0" d="M384.7,178.2c0,48.6,0,97.1,0,145.7c0,14.3-2.9,17.2-17.1,17.2c-33.9,0-67.8-0.2-101.7,0.1
		c-80.5,0.6-150.8,58.2-165,135c-14.6,78.9,30,156.5,105.5,184.1c74.8,27.3,157.4-3.4,197.4-73.3c15.5-27.1,23.3-56.2,23.2-87.5
		c-0.1-33.6,0-24.5,0-58.1c0-11.7,3.6-15.2,15.4-15.2c98,0,196.1,0,294.1,0c12.9,0,16.3,3.6,15.9,16.5
		c-5.9,173.8-141.1,280.7-312.6,305.9C238.8,778,62.4,642.2,23.3,459.3C-14,285,84.7,102.6,251.5,39.8c37.5-14.1,76.1-22.3,116-24.3
		c13.2-0.7,17.2,2.9,17.3,16.1C384.8,80.4,384.7,129.3,384.7,178.2z"/>
</g>
</svg>
