<?xml version="1.0" encoding="utf-8"?>
<!-- Generator: Adobe Illustrator 28.0.0, SVG Export Plug-In . SVG Version: 6.00 Build 0)  -->
<svg version="1.1" id="Layer_1" xmlns="http://www.w3.org/2000/svg" xmlns:xlink="http://www.w3.org/1999/xlink" x="0px" y="0px"
	 viewBox="0 0 2645 2168.3" style="enable-background:new 0 0 2645 2168.3;" xml:space="preserve">
<style type="text/css">
	.st0{fill:none;stroke:#000000;stroke-width:4;stroke-opacity:0.3;}
</style>
<line class="st0" x1="0" y1="932.8" x2="1285" y2="932.8"/>
<line class="st0" x1="0" y1="2151.7" x2="1285" y2="2151.7"/>
<g>
	<g>
		<path d="M734.2,699.2v22H509v-22c37-3,55.1-28,41-64.1L492,495H209.7l-54.1,144.1c-14,38,2,56.1,40,60.1v22H43.5v-22
			c38-4,55.1-22,69.1-59.1l201.2-538.5c12-32,5-56.1-30-59.1v-22h120.1l260.3,618.6C680.2,676.2,696.2,696.2,734.2,699.2z M477,457
			L343.8,132.6L223.7,457H477z"/>
		<path d="M1219.7,695.2c-21,26-49.1,36-79.1,36c-38,0-84.1-18-85.1-77.1c-25,49-78.1,77.1-137.1,77.1c-78.1,0-163.2-34-168.2-122.1
			C743.2,505,824.3,458,924.4,449c62.1-5,107.1-9,131.1-11c0-24,0-39,0-39c0-88.1-21-135.1-90.1-140.1c-38-2-80.1,19-78.1,67.1
			c2,54.1-34,69.1-66.1,57.1c-27-11-35-42-20-73.1c26-56.1,101.1-72.1,161.2-72.1c93.1,0,197.2,31,197.2,179.2v236.2
			c0,36,28,42,50.1,25L1219.7,695.2z M1055.5,560.1c0-33,0-69.1,0-99.1c-15,2-40,4-79.1,9c-82.1,10-127.1,60.1-126.1,123.1
			c1,69.1,45,102.1,100.1,100.1C1014.5,691.2,1055.5,641.2,1055.5,560.1z"/>
	</g>
</g>
<g>
	<g>
		<path d="M197.1,1252.1v4.6h-42.7v-4.6c7.1-0.4,9.3-4.6,7.7-12.7l-18.9-97.1l-39,114.3h-8.1L53.4,1141l-15.3,98.7
			c-1,7.9,0.8,11.6,8.7,12.4v4.6H18.6v-4.6c7.9-0.8,10.4-4.4,11.6-12.4l17-110.1c1.2-7.7,0.2-12.9-7.7-13.5v-4.6h26.3l41.1,114.1
			l39-114.1h24.3v4.6c-7.3,0.6-9.5,5-7.9,13.7l22.6,110.1C186.6,1247.8,189.5,1251.3,197.1,1252.1z"/>
		<path d="M301.9,1251.3c-4.4,5.4-10.2,7.5-16.4,7.5c-7.9,0-17.4-3.7-17.6-16c-5.2,10.2-16.2,16-28.4,16c-16.2,0-33.8-7.1-34.8-25.3
			c-1.5-21.6,15.3-31.3,36.1-33.2c12.9-1,22.2-1.9,27.2-2.3c0-5,0-8.1,0-8.1c0-18.2-4.4-28-18.7-29c-7.9-0.4-16.6,3.9-16.2,13.9
			c0.4,11.2-7.1,14.3-13.7,11.8c-5.6-2.3-7.3-8.7-4.1-15.1c5.4-11.6,20.9-14.9,33.4-14.9c19.3,0,40.9,6.4,40.9,37.1v48.9
			c0,7.5,5.8,8.7,10.4,5.2L301.9,1251.3z M267.9,1223.3c0-6.8,0-14.3,0-20.5c-3.1,0.4-8.3,0.8-16.4,1.9c-17,2.1-26.3,12.4-26.1,25.5
			c0.2,14.3,9.3,21.2,20.7,20.7C259.3,1250.5,267.9,1240.1,267.9,1223.3z"/>
		<path d="M421.5,1253.2c-5,3.9-10.6,5.6-17.2,5.6c-8.9,0-17.6-3.9-17.6-16.4c0-0.4,0-1,0-1.9c-6.8,10.4-17.6,18.2-33.8,18.2
			c-24.7,0-44.8-19.9-44.8-51.2c0-31.3,20.1-51,44.8-51c16.2,0,27,7.7,33.8,18v-46.2c0-8.1-2.1-11.6-9.7-12.2v-4.6l28-7.5h3.3V1242
			c0,7.5,6,9.3,12,7.3L421.5,1253.2z M386.7,1207.6c0-26.5-10.2-43.6-28.4-43.6c-18,0-28,18.5-28,43.6c0,25.1,10,43.5,28,43.5
			C376.5,1251.1,386.7,1234.1,386.7,1207.6z"/>
		<path d="M520.4,1204.2h-71.3c0,0.6,0,1.2,0.2,1.9c2.3,45.8,48.9,50.2,67,26.8l2.9,2.5c-7.1,13.7-22.8,23.4-40.4,23.4
			c-27.4,0-51-20.1-51-52.7c0-31.5,21.4-49.6,48.9-49.6c30.1,0,44.2,20.9,43.8,46.5V1204.2z M449.3,1196.8h51.2
			c0.6-18.5-7.1-35.9-24.3-35.7C461.7,1161.3,450.7,1175,449.3,1196.8z"/>
		<path d="M750,1252.1v4.6h-42.7v-4.6c7.1-0.4,9.3-4.6,7.7-12.7l-18.9-97.1l-39,114.3H649L606.3,1141l-15.3,98.7
			c-1,7.9,0.8,11.6,8.7,12.4v4.6h-28.2v-4.6c7.9-0.8,10.4-4.4,11.6-12.4l17-110.1c1.2-7.7,0.2-12.9-7.7-13.5v-4.6h26.3l41.1,114.1
			l39-114.1H723v4.6c-7.3,0.6-9.5,5-7.9,13.7l22.6,110.1C739.4,1247.8,742.3,1251.3,750,1252.1z"/>
		<path d="M801.6,1252.1v4.6h-41.3v-4.6c7.7-0.6,9.7-4.4,9.7-12.4v-58.9c0-8.1-2.1-11.8-9.7-12.4v-4.6l28.2-7.3h3.3v83.2
			C791.9,1247.8,794,1251.5,801.6,1252.1z M764.9,1128.1c0-8.9,6.6-13.9,14.5-13.9s14.5,5,14.5,13.9s-6.6,13.9-14.5,13.9
			S764.9,1137,764.9,1128.1z"/>
		<path d="M886.4,1184.5c-6.8,2.3-14.3-0.2-15.1-10.4c-0.8-7.7-5-9.1-10.8-8.1c-8.3,1.5-17,12.7-17,27.6v46.2
			c0,8.1,2.1,11.6,9.7,12.2v4.6H812v-4.6c7.7-0.6,9.7-4.1,9.7-12.2v-59.1c0-8.1-2.1-11.8-9.7-12.4v-4.6l27.6-7.3h3.3v17.6
			c5.8-11.4,15.1-17.4,27.2-17.6c9.7-0.2,19.5,4.1,22.4,12.9C894.1,1175,892.3,1182.5,886.4,1184.5z"/>
		<path d="M988.5,1251.3c-4.4,5.4-10.2,7.5-16.4,7.5c-7.9,0-17.4-3.7-17.6-16c-5.2,10.2-16.2,16-28.4,16c-16.2,0-33.8-7.1-34.8-25.3
			c-1.5-21.6,15.3-31.3,36.1-33.2c12.9-1,22.2-1.9,27.2-2.3c0-5,0-8.1,0-8.1c0-18.2-4.4-28-18.7-29c-7.9-0.4-16.6,3.9-16.2,13.9
			c0.4,11.2-7.1,14.3-13.7,11.8c-5.6-2.3-7.3-8.7-4.1-15.1c5.4-11.6,20.9-14.9,33.4-14.9c19.3,0,40.9,6.4,40.9,37.1v48.9
			c0,7.5,5.8,8.7,10.4,5.2L988.5,1251.3z M954.5,1223.3c0-6.8,0-14.3,0-20.5c-3.1,0.4-8.3,0.8-16.4,1.9c-17,2.1-26.3,12.4-26.1,25.5
			c0.2,14.3,9.3,21.2,20.7,20.7C946,1250.5,954.5,1240.1,954.5,1223.3z"/>
		<path d="M1101.3,1269.8c-0.8,23.4-22,42.1-55.6,42.1c-29.2,0-58.1-10.8-56-32.1c1.2-10.2,10.2-18.5,24.3-23.2
			c-13.5-3.9-20.7-11-18.7-21.2c2.3-10.2,15.1-14.7,24.9-16.8c-8.9-5.8-14.7-15.1-14.7-27.6c0-22.2,18.9-34.4,40-34.4
			c8.1,0,16,1.7,22.6,5.2c0.4-5,2.1-10,4.6-14.9c4.8-8.9,17-11.6,21.2-4.1c3.1,6.2-1.5,14.3-10.2,13.3c-4.1-0.4-6.4,0-8.5,1.5
			c-2.1,1.5-2.7,4.1-2.9,7.1c8.1,5.8,13.5,14.9,13.5,26.5c0,22.2-19.1,34.8-40.2,34.8c-6.6,0-13.3-1.5-19.1-3.7
			c-6.8,1-17.8,3.7-18.2,9.3c-0.8,8.1,11.4,9.3,39.2,9.3C1084.3,1240.7,1102.1,1249.6,1101.3,1269.8z M1044.7,1260
			c-7.3,0-14.1-0.4-20.1-1.2c-8.7,3.1-17,9.5-17.6,21.6c-1,20.1,21.8,25.7,39.8,25.7c17.6,0.2,35-8.9,38-25.9
			C1087.4,1263.5,1072.7,1260,1044.7,1260z M1025.2,1191c0,19.3,8.7,29.4,20.3,29.4c11.8,0,20.5-10.2,20.5-29.4
			c0-19.1-8.7-29.2-20.5-29.2C1033.9,1161.7,1025.2,1171.9,1025.2,1191z"/>
		<path d="M1193.2,1204.2h-71.3c0,0.6,0,1.2,0.2,1.9c2.3,45.8,48.9,50.2,67,26.8l2.9,2.5c-7.1,13.7-22.8,23.4-40.4,23.4
			c-27.4,0-51-20.1-51-52.7c0-31.5,21.4-49.6,48.9-49.6c30.1,0,44.2,20.9,43.8,46.5V1204.2z M1122,1196.8h51.2
			c0.6-18.5-7.1-35.9-24.3-35.7C1134.5,1161.3,1123.5,1175,1122,1196.8z"/>
		<path d="M124.8,1382.7h-3.9c-3.3-10.6-8.9-24.3-28-24.3H54.7v63h24.9c14.5,0,18.5-5,19.9-13.7h3.7v35h-3.7
			c-1.5-8.7-5.4-13.5-19.9-13.5H54.7v49.4c0,8.1,2.1,11.6,9.7,12.4v4.6H22.7v-4.6c7.7-0.8,9.7-4.4,9.7-12.4v-111.4
			c0-8.1-2.1-11.6-9.7-12.2v-4.6h98.1L124.8,1382.7z"/>
		<path d="M215,1490.3c-4.4,5.4-10.2,7.5-16.4,7.5c-7.9,0-17.4-3.7-17.6-16c-5.2,10.2-16.2,16-28.4,16c-16.2,0-33.8-7.1-34.8-25.3
			c-1.5-21.6,15.3-31.3,36.1-33.2c12.9-1,22.2-1.9,27.2-2.3c0-5,0-8.1,0-8.1c0-18.2-4.4-28-18.7-29c-7.9-0.4-16.6,3.9-16.2,13.9
			c0.4,11.2-7.1,14.3-13.7,11.8c-5.6-2.3-7.3-8.7-4.1-15.1c5.4-11.6,20.9-14.9,33.4-14.9c19.3,0,40.9,6.4,40.9,37.1v48.9
			c0,7.5,5.8,8.7,10.4,5.2L215,1490.3z M181,1462.3c0-6.8,0-14.3,0-20.5c-3.1,0.4-8.3,0.8-16.4,1.9c-17,2.1-26.3,12.4-26.1,25.5
			c0.2,14.3,9.3,21.2,20.7,20.7C172.5,1489.5,181,1479.1,181,1462.3z"/>
		<path d="M397.3,1491.1v4.6h-41.5v-4.6c7.9-0.6,10-4.4,10-12.4v-46.2c0-16.8-6.4-29-22.4-29c-13.9,0-22.8,11.6-22.8,27.2
			c0,0.6,0,48.1,0,48.1c0,8.1,2.1,11.8,9.7,12.4v4.6H289v-4.6c7.7-0.6,9.7-4.4,9.7-12.4v-46.2c0-16.8-6.2-29-22.2-29
			c-13.9,0-23,11.6-23,27.2v48.1c0,8.1,2.1,11.8,10,12.4v4.6h-41.3v-4.6c7.7-0.6,9.7-4.4,9.7-12.4v-58.9c0-8.1-2.1-11.8-9.7-12.4
			v-4.6l27.4-7.3h3.3v14.7c7.5-10,18.2-14.7,30.5-14.7c17,0,28,7.7,33.2,19.5c7.5-13.3,19.5-19.5,33.8-19.5
			c25.1,0,36.9,17.2,36.9,39v44.2C387.3,1486.8,389.4,1490.5,397.3,1491.1z"/>
		<path d="M448.9,1491.1v4.6h-41.3v-4.6c7.7-0.6,9.7-4.4,9.7-12.4v-58.9c0-8.1-2.1-11.8-9.7-12.4v-4.6l28.2-7.3h3.3v83.2
			C439.1,1486.8,441.2,1490.5,448.9,1491.1z M412.2,1367.1c0-8.9,6.6-13.9,14.5-13.9s14.5,5,14.5,13.9c0,8.9-6.6,13.9-14.5,13.9
			S412.2,1376,412.2,1367.1z"/>
		<path d="M500.7,1491.1v4.6h-41.5v-4.6c7.9-0.6,10-4.4,10-12.4v-111.4c0-8.1-2.1-11.6-10-12.2v-4.6l28.2-7.5h3.3v135.6
			C490.8,1486.8,492.8,1490.5,500.7,1491.1z"/>
		<path d="M609,1397.4v4.6c-6,0.8-7.9,3.5-10.6,9.7l-37.7,89.2c-14.3,31.1-20.9,38.4-32.8,40.9c-6.4,1.2-16.6,0.6-22.8-4.1
			c-4.6-3.7-6.2-11.4-1.2-16.6c4.8-4.8,12.4-3.1,14.3,2.9c1.2,4.4,2.9,10.6,10.6,9.5c6-0.6,13.9-5.2,25.3-32.6l0.8-2.1l-37.7-83.6
			c-3.5-8.1-5.6-12.2-13.3-13.3v-4.6h40.4v4.6c-6.4,0.4-6.8,5.8-4.4,11.8l25.5,59.9l25.1-59.9c2.3-5.6,1.9-11.2-4.6-11.8v-4.6H609z"
			/>
	</g>
</g>
<g>
	<g>
		<path d="M53.4,1739.2H52c-1.1-3.6-3-8.3-9.6-8.3h-6.6v41.2c0,2.8,0.7,4.1,3.4,4.3v1.6H24.9v-1.6c2.7-0.2,3.4-1.5,3.4-4.3v-41.2
			h-6.6c-6.6,0-8.5,4.7-9.6,8.3h-1.4l1.4-11h40L53.4,1739.2z"/>
		<path d="M85.9,1744.3v1.6c-2.1,0.3-2.7,1.2-3.6,3.3l-12.9,30.6c-4.9,10.7-7.2,13.2-11.2,14c-2.2,0.4-5.7,0.2-7.8-1.4
			c-1.6-1.3-2.1-3.9-0.4-5.7c1.6-1.6,4.3-1.1,4.9,1c0.4,1.5,1,3.6,3.6,3.3c2.1-0.2,4.8-1.8,8.7-11.2l0.3-0.7l-12.9-28.7
			c-1.2-2.8-1.9-4.2-4.6-4.6v-1.6h13.9v1.6c-2.2,0.1-2.3,2-1.5,4.1l8.7,20.5l8.6-20.5c0.8-1.9,0.6-3.8-1.6-4.1v-1.6H85.9z"/>
		<path d="M125.3,1761.1c0,10.8-6.8,17.6-15.3,17.6c-5.5,0-9.2-2.7-11.6-6.2v15.8c0,2.8,0.7,4,3.3,4.2v1.6H87.7v-1.6
			c2.7-0.2,3.4-1.4,3.4-4.2v-36.3c0-2.8-0.7-4.1-3.4-4.3v-1.6l9.7-2.5h1.1v6.2c2.3-3.6,6-6.2,11.6-6.2
			C118.5,1743.6,125.3,1750.4,125.3,1761.1z M117.8,1761.1c0-8.6-3.4-14.9-9.6-14.9c-6.3,0-9.7,5.8-9.7,14.9s3.5,14.9,9.7,14.9
			C114.4,1776,117.8,1769.7,117.8,1761.1z"/>
		<path d="M165,1761.1c0,11.1-8.4,17.6-17.8,17.6s-17.8-6.5-17.8-17.6c0-11.1,8.4-17.5,17.8-17.5S165,1750,165,1761.1z
			 M157.3,1761.1c0-9.2-3.8-15.5-10.2-15.5s-10.2,6.3-10.2,15.5c0,9.2,3.8,15.5,10.2,15.5S157.3,1770.4,157.3,1761.1z"/>
		<path d="M204.3,1782.4c-0.3,8-7.5,14.4-19.1,14.4c-10,0-19.9-3.7-19.2-11c0.4-3.5,3.5-6.3,8.3-8c-4.6-1.4-7.1-3.8-6.4-7.3
			c0.8-3.5,5.2-5,8.5-5.8c-3.1-2-5-5.2-5-9.5c0-7.6,6.5-11.8,13.7-11.8c2.8,0,5.5,0.6,7.8,1.8c0.1-1.7,0.7-3.4,1.6-5.1
			c1.6-3.1,5.8-4,7.3-1.4c1.1,2.1-0.5,4.9-3.5,4.6c-1.4-0.1-2.2,0-2.9,0.5s-0.9,1.4-1,2.4c2.8,2,4.6,5.1,4.6,9.1
			c0,7.6-6.5,11.9-13.8,11.9c-2.3,0-4.6-0.5-6.5-1.3c-2.3,0.4-6.1,1.3-6.3,3.2c-0.3,2.8,3.9,3.2,13.4,3.2
			C198.5,1772.5,204.6,1775.5,204.3,1782.4z M184.9,1779.1c-2.5,0-4.8-0.1-6.9-0.4c-3,1.1-5.8,3.3-6,7.4c-0.4,6.9,7.5,8.8,13.7,8.8
			c6,0.1,12-3.1,13-8.9C199.6,1780.3,194.5,1779.1,184.9,1779.1z M178.3,1755.4c0,6.6,3,10.1,7,10.1c4.1,0,7-3.5,7-10.1
			c0-6.5-3-10-7-10C181.2,1745.4,178.3,1748.9,178.3,1755.4z"/>
		<path d="M232.1,1753.2c-2.3,0.8-4.9-0.1-5.2-3.6c-0.3-2.6-1.7-3.1-3.7-2.8c-2.8,0.5-5.8,4.3-5.8,9.5v15.9c0,2.8,0.7,4,3.3,4.2v1.6
			h-14.1v-1.6c2.6-0.2,3.3-1.4,3.3-4.2v-20.3c0-2.8-0.7-4.1-3.3-4.3v-1.6l9.5-2.5h1.1v6c2-3.9,5.2-6,9.3-6c3.3-0.1,6.7,1.4,7.7,4.4
			C234.7,1749.9,234.1,1752.5,232.1,1753.2z"/>
		<path d="M267.1,1776.1c-1.5,1.8-3.5,2.6-5.6,2.6c-2.7,0-6-1.3-6-5.5c-1.8,3.5-5.5,5.5-9.7,5.5c-5.5,0-11.6-2.4-11.9-8.7
			c-0.5-7.4,5.3-10.7,12.4-11.4c4.4-0.4,7.6-0.6,9.3-0.8c0-1.7,0-2.8,0-2.8c0-6.3-1.5-9.6-6.4-10c-2.7-0.1-5.7,1.4-5.5,4.8
			c0.1,3.8-2.4,4.9-4.7,4.1c-1.9-0.8-2.5-3-1.4-5.2c1.8-4,7.2-5.1,11.4-5.1c6.6,0,14,2.2,14,12.7v16.8c0,2.6,2,3,3.6,1.8
			L267.1,1776.1z M255.4,1766.5c0-2.3,0-4.9,0-7c-1.1,0.1-2.8,0.3-5.6,0.6c-5.8,0.7-9,4.3-9,8.7c0.1,4.9,3.2,7.3,7.1,7.1
			C252.5,1775.8,255.4,1772.3,255.4,1766.5z"/>
		<path d="M306.5,1761.1c0,10.8-6.8,17.6-15.3,17.6c-5.5,0-9.2-2.7-11.6-6.2v15.8c0,2.8,0.7,4,3.3,4.2v1.6h-14.2v-1.6
			c2.7-0.2,3.4-1.4,3.4-4.2v-36.3c0-2.8-0.7-4.1-3.4-4.3v-1.6l9.7-2.5h1.1v6.2c2.3-3.6,6-6.2,11.6-6.2
			C299.7,1743.6,306.5,1750.4,306.5,1761.1z M299,1761.1c0-8.6-3.4-14.9-9.6-14.9c-6.3,0-9.7,5.8-9.7,14.9s3.5,14.9,9.7,14.9
			C295.6,1776,299,1769.7,299,1761.1z"/>
		<path d="M348.5,1776.4v1.6h-14.1v-1.6c2.6-0.2,3.3-1.5,3.3-4.3v-15.9c0-5.8-2.6-10-8.1-10c-4.9,0-8.3,4-8.3,9.3v16.5
			c0,2.8,0.7,4.1,3.3,4.3v1.6h-14.1v-1.6c2.6-0.2,3.3-1.5,3.3-4.3v-38.2c0-2.8-0.7-4-3.3-4.2v-1.6l9.7-2.6h1.1v22.9
			c2.7-3.3,6.5-4.9,10.7-4.9c8.8,0,13.2,5.9,13.2,13.4v15.1C345.1,1774.9,345.8,1776.2,348.5,1776.4z"/>
		<path d="M384.2,1744.3v1.6c-2.1,0.3-2.7,1.2-3.6,3.3l-12.9,30.6c-4.9,10.7-7.2,13.2-11.2,14c-2.2,0.4-5.7,0.2-7.8-1.4
			c-1.6-1.3-2.1-3.9-0.4-5.7c1.6-1.6,4.3-1.1,4.9,1c0.4,1.5,1,3.6,3.6,3.3c2.1-0.2,4.8-1.8,8.7-11.2l0.3-0.7l-12.9-28.7
			c-1.2-2.8-1.9-4.2-4.6-4.6v-1.6H362v1.6c-2.2,0.1-2.3,2-1.5,4.1l8.7,20.5l8.6-20.5c0.8-1.9,0.6-3.8-1.6-4.1v-1.6H384.2z"/>
		<path d="M425.2,1736.9c-1.4,1-3.6,0.6-4.5-0.9c-0.8-1.4-0.9-3.3-1.4-4.6c-0.8-1.7-1.8-2.3-3.6-2.3c-2.5,0.1-3.8,2.2-3.6,4.8
			c0.4,4.5,1.6,3.3,1.6,9.8v0.5h8.8v2.6h-8.8v25.3c0,2.8,0.7,4.1,3.4,4.3v1.6H403v-1.6c2.6-0.2,3.3-1.5,3.3-4.3v-25.3h-6.1v-2.6h6.1
			v-2.8c0-7.5,2.4-13.9,9.9-14.1c3.6-0.1,7,1.1,9.2,3.9C426.4,1732.5,427.3,1735.4,425.2,1736.9z"/>
		<path d="M457.9,1761.1c0,11.1-8.4,17.6-17.8,17.6s-17.8-6.5-17.8-17.6c0-11.1,8.4-17.5,17.8-17.5S457.9,1750,457.9,1761.1z
			 M450.3,1761.1c0-9.2-3.8-15.5-10.2-15.5s-10.2,6.3-10.2,15.5c0,9.2,3.8,15.5,10.2,15.5S450.3,1770.4,450.3,1761.1z"/>
		<path d="M487.4,1753.2c-2.3,0.8-4.9-0.1-5.2-3.6c-0.3-2.6-1.7-3.1-3.7-2.8c-2.8,0.5-5.8,4.3-5.8,9.5v15.9c0,2.8,0.7,4,3.3,4.2v1.6
			h-14.1v-1.6c2.6-0.2,3.3-1.4,3.3-4.2v-20.3c0-2.8-0.7-4.1-3.3-4.3v-1.6l9.5-2.5h1.1v6c2-3.9,5.2-6,9.3-6c3.3-0.1,6.7,1.4,7.7,4.4
			C490,1749.9,489.4,1752.5,487.4,1753.2z"/>
		<path d="M528,1774.7c-1.6,2.2-4.1,4-7.6,4c-5.1,0-9.1-2.7-9.1-10v-21.9H506v-2.6c6,0,9.3-4.1,10.5-9.8c0.9,0,2.2,0,2.2,0v9.8h7.3
			v2.6h-7.3v21.9c0,3.1,1,5,3.1,5.7c2.1,0.7,3.9,0.1,5.3-1L528,1774.7z"/>
		<path d="M545,1776.4v1.6h-14.1v-1.6c2.6-0.2,3.3-1.5,3.3-4.3v-20.2c0-2.8-0.7-4.1-3.3-4.3v-1.6l9.7-2.5h1.1v28.5
			C541.6,1774.9,542.3,1776.2,545,1776.4z M532.4,1733.9c0-3.1,2.3-4.8,5-4.8s5,1.7,5,4.8s-2.3,4.8-5,4.8S532.4,1736.9,532.4,1733.9
			z"/>
		<path d="M568.7,1774.7c-1.6,2.2-4.1,4-7.6,4c-5.1,0-9.1-2.7-9.1-10v-21.9h-5.3v-2.6c6,0,9.3-4.1,10.5-9.8c0.9,0,2.2,0,2.2,0v9.8
			h7.3v2.6h-7.3v21.9c0,3.1,1,5,3.1,5.7c2.1,0.7,3.9,0.1,5.3-1L568.7,1774.7z"/>
		<path d="M585.8,1776.4v1.6h-14.2v-1.6c2.7-0.2,3.4-1.5,3.4-4.3v-38.2c0-2.8-0.7-4-3.4-4.2v-1.6l9.7-2.6h1.1v46.5
			C582.4,1774.9,583.1,1776.2,585.8,1776.4z"/>
		<path d="M620.8,1760h-24.5c0,0.2,0,0.4,0.1,0.6c0.8,15.7,16.8,17.2,23,9.2l1,0.9c-2.4,4.7-7.8,8-13.9,8c-9.4,0-17.5-6.9-17.5-18.1
			c0-10.8,7.3-17,16.8-17c10.3,0,15.1,7.2,15,15.9V1760z M596.4,1757.4h17.6c0.2-6.3-2.4-12.3-8.3-12.2
			C600.7,1745.3,596.9,1749.9,596.4,1757.4z"/>
		<path d="M650.1,1770.4c-1.4,5.5-6.4,8.3-13.3,8.3c-4.3,0-9.3-1.3-12.4-3.7v-7.8h1.1c1.6,6.8,6.7,9.4,11.3,9.5
			c3.6,0.1,6.5-1.2,7.3-4.3c1.1-4.6-3.6-6.5-8.2-8.5c-6.8-3.1-11.5-6.3-9.7-13.6c1.2-4.8,6.4-6.8,11.4-6.8c3.6,0,7.3,1.2,10.5,3.6
			v6.9h-1.2c-1.6-6.4-4.6-8.9-9.2-8.7c-2.5,0.1-5.3,1-5.6,4.1c-0.5,4.2,4.1,6,8.7,8.2C646.2,1760.2,652.1,1763.2,650.1,1770.4z"/>
		<path d="M664.3,1774.5c0,2.6-2,4.2-4.4,4.2c-2.3,0-4.3-1.6-4.3-4.2c0-2.7,2-4.2,4.3-4.2C662.3,1770.3,664.3,1771.8,664.3,1774.5z"
			/>
	</g>
</g>
<g>
	<g>
		<path d="M46.9,2067.8c-2.1,8.1-9.6,10.8-17,10.8c-6.5,0-11.9-1.8-16.5-5v-10h1.4c2.6,8.2,7.4,12.8,14.1,13.2
			c6.8,0.4,10.2-3.2,11-7.7c1.2-7-4.5-10-11-13.7c-7.2-4.1-14.9-8.9-12.8-18.4c1.6-7,7.5-9.5,14.3-9.5c5.5,0,9.5,1.9,14.2,5v9.6
			h-1.4c-2.1-8.8-6.3-12.4-11.9-12.7c-5.5-0.3-8.4,2.6-8.7,6.9c-0.6,6.2,5,8.8,11.5,12.6C43,2054,49.3,2058.2,46.9,2067.8z"/>
		<path d="M83.5,2059.9H59.1c0,0.2,0,0.4,0.1,0.6c0.8,15.7,16.8,17.2,23,9.2l1,0.9c-2.4,4.7-7.8,8-13.9,8c-9.4,0-17.5-6.9-17.5-18.1
			c0-10.8,7.3-17,16.8-17c10.3,0,15.1,7.2,15,15.9V2059.9z M59.1,2057.4h17.6c0.2-6.3-2.4-12.3-8.3-12.2
			C63.4,2045.2,59.6,2049.9,59.1,2057.4z"/>
		<path d="M113,2053.2c-2.3,0.8-4.9-0.1-5.2-3.6c-0.3-2.6-1.7-3.1-3.7-2.8c-2.8,0.5-5.8,4.3-5.8,9.5v15.9c0,2.8,0.7,4,3.3,4.2v1.6
			H87.5v-1.6c2.6-0.2,3.3-1.4,3.3-4.2v-20.3c0-2.8-0.7-4.1-3.3-4.3v-1.6l9.5-2.5h1.1v6c2-3.9,5.2-6,9.3-6c3.3-0.1,6.7,1.4,7.7,4.4
			C115.7,2049.9,115,2052.4,113,2053.2z"/>
		<path d="M132.7,2076.3v1.6h-14.1v-1.6c2.6-0.2,3.3-1.5,3.3-4.3v-20.2c0-2.8-0.7-4.1-3.3-4.3v-1.6l9.7-2.5h1.1v28.5
			C129.3,2074.8,130,2076.1,132.7,2076.3z M120.1,2033.8c0-3.1,2.3-4.8,5-4.8s5,1.7,5,4.8s-2.3,4.8-5,4.8S120.1,2036.9,120.1,2033.8
			z"/>
		<path d="M159.8,2036.8c-1.4,1-3.6,0.6-4.5-0.9c-0.8-1.4-0.9-3.3-1.4-4.6c-0.8-1.7-1.8-2.3-3.6-2.3c-2.5,0.1-3.8,2.2-3.6,4.8
			c0.4,4.5,1.6,3.3,1.6,9.8v0.5h8.8v2.6h-8.8v25.3c0,2.8,0.7,4.1,3.4,4.3v1.6h-14.1v-1.6c2.6-0.2,3.3-1.5,3.3-4.3v-25.3h-6.1v-2.6
			h6.1v-2.8c0-7.5,2.4-13.9,9.9-14.1c3.6-0.1,7,1.1,9.2,3.9C161,2032.4,161.9,2035.3,159.8,2036.8z"/>
	</g>
</g>
<g>
	<g>
		<path d="M772.9,2063.8l-1.5,9.8c-4.3,3.1-9,5.3-17.2,5c-14.7-0.4-26.7-10.1-26.7-25.6c0-15.5,11.3-25.6,26.3-25.6
			c6.4,0,13,2.1,17.6,5v10.1h-1.5c-2.1-8.9-8.4-13.2-16.1-13.2c-11.1,0-18,10-18,23.6c0,13.7,6.9,23,18,23.7
			c8.7,0.5,14.9-3.9,17.7-12.9H772.9z"/>
		<path d="M811.8,2061c0,11.1-8.4,17.6-17.8,17.6s-17.8-6.5-17.8-17.6c0-11.1,8.4-17.5,17.8-17.5S811.8,2050,811.8,2061z
			 M804.1,2061c0-9.2-3.8-15.5-10.2-15.5s-10.2,6.3-10.2,15.5c0,9.2,3.8,15.5,10.2,15.5S804.1,2070.3,804.1,2061z"/>
		<path d="M853.8,2076.3v1.6h-14.1v-1.6c2.6-0.2,3.3-1.5,3.3-4.3v-15.9c0-5.8-2.6-10-8.1-10c-4.9,0-8.3,4-8.3,9.3v16.5
			c0,2.8,0.7,4.1,3.4,4.3v1.6h-14.2v-1.6c2.7-0.2,3.4-1.5,3.4-4.3v-20.2c0-2.8-0.7-4.1-3.4-4.3v-1.6l9.5-2.5h1.1v5.2
			c2.7-3.6,6.5-5.2,11-5.2c8.7,0,13.2,5.9,13.2,13.4v15.1C850.4,2074.8,851.1,2076.1,853.8,2076.3z"/>
		<path d="M877.5,2074.6c-1.6,2.2-4.1,4-7.6,4c-5.1,0-9.1-2.7-9.1-10v-21.9h-5.3v-2.6c6,0,9.3-4.1,10.5-9.8c0.9,0,2.2,0,2.2,0v9.8
			h7.3v2.6h-7.3v21.9c0,3.1,1,5,3.1,5.7c2.1,0.7,3.9,0.1,5.3-1L877.5,2074.6z"/>
		<path d="M911.1,2059.9h-24.5c0,0.2,0,0.4,0.1,0.6c0.8,15.7,16.8,17.2,23,9.2l1,0.9c-2.4,4.7-7.8,8-13.9,8
			c-9.4,0-17.5-6.9-17.5-18.1c0-10.8,7.3-17,16.8-17c10.3,0,15.1,7.2,15,15.9V2059.9z M886.7,2057.4h17.6c0.2-6.3-2.4-12.3-8.3-12.2
			C891,2045.2,887.2,2049.9,886.7,2057.4z"/>
		<path d="M975.1,2076.3v1.6h-14.2v-1.6c2.7-0.2,3.4-1.5,3.4-4.3v-15.9c0-5.8-2.2-10-7.7-10c-4.8,0-7.8,4-7.8,9.3
			c0,0.2,0,16.5,0,16.5c0,2.8,0.7,4.1,3.3,4.3v1.6H938v-1.6c2.6-0.2,3.3-1.5,3.3-4.3v-15.9c0-5.8-2.1-10-7.6-10
			c-4.8,0-7.9,4-7.9,9.3v16.5c0,2.8,0.7,4.1,3.4,4.3v1.6h-14.1v-1.6c2.6-0.2,3.3-1.5,3.3-4.3v-20.2c0-2.8-0.7-4.1-3.3-4.3v-1.6
			l9.4-2.5h1.1v5c2.6-3.4,6.3-5,10.5-5c5.8,0,9.6,2.6,11.4,6.7c2.6-4.6,6.7-6.7,11.6-6.7c8.6,0,12.7,5.9,12.7,13.4v15.1
			C971.7,2074.8,972.4,2076.1,975.1,2076.3z"/>
		<path d="M1015.6,2061c0,10.8-6.8,17.6-15.3,17.6c-5.5,0-9.2-2.7-11.6-6.2v15.8c0,2.8,0.7,4,3.3,4.2v1.6h-14.2v-1.6
			c2.7-0.2,3.4-1.4,3.4-4.2v-36.3c0-2.8-0.7-4.1-3.4-4.3v-1.6l9.7-2.5h1.1v6.2c2.3-3.6,6-6.2,11.6-6.2
			C1008.8,2043.6,1015.6,2050.3,1015.6,2061z M1008.1,2061c0-8.6-3.4-14.9-9.6-14.9c-6.3,0-9.7,5.8-9.7,14.9s3.5,14.9,9.7,14.9
			C1004.7,2076,1008.1,2069.7,1008.1,2061z"/>
		<path d="M1055.2,2061c0,11.1-8.4,17.6-17.8,17.6s-17.8-6.5-17.8-17.6c0-11.1,8.4-17.5,17.8-17.5S1055.2,2050,1055.2,2061z
			 M1047.5,2061c0-9.2-3.8-15.5-10.2-15.5s-10.2,6.3-10.2,15.5c0,9.2,3.8,15.5,10.2,15.5S1047.5,2070.3,1047.5,2061z"/>
		<path d="M1084.7,2053.2c-2.3,0.8-4.9-0.1-5.2-3.6c-0.3-2.6-1.7-3.1-3.7-2.8c-2.8,0.5-5.8,4.3-5.8,9.5v15.9c0,2.8,0.7,4,3.3,4.2
			v1.6h-14.1v-1.6c2.6-0.2,3.3-1.4,3.3-4.2v-20.3c0-2.8-0.7-4.1-3.3-4.3v-1.6l9.5-2.5h1.1v6c2-3.9,5.2-6,9.3-6
			c3.3-0.1,6.7,1.4,7.7,4.4C1087.3,2049.9,1086.7,2052.4,1084.7,2053.2z"/>
		<path d="M1119.6,2076.1c-1.5,1.8-3.5,2.6-5.6,2.6c-2.7,0-6-1.3-6-5.5c-1.8,3.5-5.5,5.5-9.7,5.5c-5.5,0-11.6-2.4-11.9-8.7
			c-0.5-7.4,5.3-10.7,12.4-11.4c4.4-0.4,7.6-0.6,9.3-0.8c0-1.7,0-2.8,0-2.8c0-6.3-1.5-9.6-6.4-10c-2.7-0.1-5.7,1.4-5.5,4.8
			c0.1,3.8-2.4,4.9-4.7,4.1c-1.9-0.8-2.5-3-1.4-5.2c1.8-4,7.2-5.1,11.4-5.1c6.6,0,14,2.2,14,12.7v16.8c0,2.6,2,3,3.6,1.8
			L1119.6,2076.1z M1108,2066.5c0-2.3,0-4.9,0-7c-1.1,0.1-2.8,0.3-5.6,0.6c-5.8,0.7-9,4.3-9,8.7c0.1,4.9,3.2,7.3,7.1,7.1
			C1105.1,2075.8,1108,2072.2,1108,2066.5z"/>
		<path d="M1148.4,2053.2c-2.3,0.8-4.9-0.1-5.2-3.6c-0.3-2.6-1.7-3.1-3.7-2.8c-2.8,0.5-5.8,4.3-5.8,9.5v15.9c0,2.8,0.7,4,3.3,4.2
			v1.6h-14.1v-1.6c2.6-0.2,3.3-1.4,3.3-4.2v-20.3c0-2.8-0.7-4.1-3.3-4.3v-1.6l9.5-2.5h1.1v6c2-3.9,5.2-6,9.3-6
			c3.3-0.1,6.7,1.4,7.7,4.4C1151,2049.9,1150.4,2052.4,1148.4,2053.2z"/>
		<path d="M1188.1,2044.2v1.6c-2.1,0.3-2.7,1.2-3.6,3.3l-12.9,30.6c-4.9,10.7-7.2,13.2-11.2,14c-2.2,0.4-5.7,0.2-7.8-1.4
			c-1.6-1.3-2.1-3.9-0.4-5.7c1.6-1.6,4.3-1.1,4.9,1c0.4,1.5,1,3.6,3.6,3.3c2.1-0.2,4.8-1.8,8.7-11.2l0.3-0.7l-12.9-28.7
			c-1.2-2.8-1.9-4.2-4.6-4.6v-1.6h13.9v1.6c-2.2,0.1-2.3,2-1.5,4.1l8.7,20.5l8.6-20.5c0.8-1.9,0.6-3.8-1.6-4.1v-1.6H1188.1z"/>
	</g>
</g>
<g>
	<line class="st0" x1="1665" y1="2151.7" x2="2645" y2="2151.7"/>
</g>
<g>
	<line class="st0" x1="1665" y1="1746.3" x2="2645" y2="1746.3"/>
</g>
<g>
	<line class="st0" x1="1665" y1="1337.6" x2="2645" y2="1337.6"/>
</g>
<g>
	<line class="st0" x1="1665" y1="932.8" x2="2645" y2="932.8"/>
</g>
<g>
	<line class="st0" x1="1665" y1="528.2" x2="2645" y2="528.2"/>
</g>
<g>
	<g>
		<g>
			<path d="M2512.4,1210.8v4.8h-49.1v-4.8c8.1-0.7,12-6.1,8.9-14l-12.7-30.5h-61.5l-11.8,31.4c-3.1,8.3,0.4,12.2,8.7,13.1v4.8h-33.2
				v-4.8c8.3-0.9,12-4.8,15.1-12.9l43.9-117.4c2.6-7,1.1-12.2-6.5-12.9v-4.8h26.2l56.7,134.8
				C2500.6,1205.8,2504.1,1210.1,2512.4,1210.8z M2456.3,1158l-29-70.7l-26.2,70.7H2456.3z"/>
			<path d="M2618.2,1209.9c-4.6,5.7-10.7,7.9-17.2,7.9c-8.3,0-18.3-3.9-18.5-16.8c-5.5,10.7-17,16.8-29.9,16.8
				c-17,0-35.6-7.4-36.7-26.6c-1.5-22.7,16.1-32.9,38-34.9c13.5-1.1,23.3-2,28.6-2.4c0-5.2,0-8.5,0-8.5c0-19.2-4.6-29.5-19.6-30.5
				c-8.3-0.4-17.5,4.1-17,14.6c0.4,11.8-7.4,15.1-14.4,12.4c-5.9-2.4-7.6-9.2-4.4-15.9c5.7-12.2,22-15.7,35.1-15.7
				c20.3,0,43,6.8,43,39.1v51.5c0,7.9,6.1,9.2,10.9,5.5L2618.2,1209.9z M2582.4,1180.5c0-7.2,0-15.1,0-21.6c-3.3,0.4-8.7,0.9-17.2,2
				c-17.9,2.2-27.7,13.1-27.5,26.8c0.2,15.1,9.8,22.3,21.8,21.8C2573.5,1209,2582.4,1198.1,2582.4,1180.5z"/>
		</g>
	</g>
	<g>
		<g>
			<g>
				<path d="M1737.8,1107.2v1.7h-16.1v-1.7c2.7-0.2,3.5-1.7,2.9-4.8l-7.1-36.6l-14.7,43.1h-3.1l-16.1-43.7l-5.8,37.3
					c-0.4,3,0.3,4.4,3.3,4.7v1.7h-10.6v-1.7c3-0.3,3.9-1.6,4.4-4.7l6.4-41.6c0.5-2.9,0.1-4.9-2.9-5.1v-1.7h9.9l15.5,43.1l14.7-43.1
					h9.2v1.7c-2.7,0.2-3.6,1.9-3,5.2l8.5,41.6C1733.8,1105.6,1734.9,1106.9,1737.8,1107.2z"/>
				<path d="M1773.9,1089.1H1747c0,0.2,0,0.5,0.1,0.7c0.9,17.3,18.5,18.9,25.3,10.1l1.1,0.9c-2.7,5.2-8.6,8.8-15.3,8.8
					c-10.3,0-19.3-7.6-19.3-19.9c0-11.9,8.1-18.7,18.5-18.7c11.4,0,16.7,7.9,16.5,17.5V1089.1z M1747.1,1086.3h19.3
					c0.2-7-2.7-13.5-9.2-13.5C1751.8,1072.9,1747.6,1078.1,1747.1,1086.3z"/>
				<path d="M1821.5,1107.6c-1.9,1.5-4,2.1-6.5,2.1c-3.4,0-6.7-1.5-6.7-6.2c0-0.2,0-0.4,0-0.7c-2.6,3.9-6.7,6.9-12.8,6.9
					c-9.3,0-16.9-7.5-16.9-19.3s7.6-19.3,16.9-19.3c6.1,0,10.2,2.9,12.8,6.8v-17.5c0-3.1-0.8-4.4-3.7-4.6v-1.7l10.6-2.8h1.3v52.1
					c0,2.8,2.3,3.5,4.5,2.7L1821.5,1107.6z M1808.4,1090.4c0-10-3.8-16.4-10.7-16.4c-6.8,0-10.6,7-10.6,16.4s3.8,16.4,10.6,16.4
					C1804.5,1106.8,1808.4,1100.4,1808.4,1090.4z"/>
				<path d="M1839.8,1107.2v1.7h-15.6v-1.7c2.9-0.2,3.7-1.6,3.7-4.7v-22.2c0-3.1-0.8-4.5-3.7-4.7v-1.7l10.6-2.7h1.3v31.4
					C1836.2,1105.6,1836.9,1107,1839.8,1107.2z M1826,1060.4c0-3.4,2.5-5.2,5.5-5.2s5.5,1.9,5.5,5.2c0,3.4-2.5,5.2-5.5,5.2
					S1826,1063.8,1826,1060.4z"/>
				<path d="M1885.3,1107.2v1.7h-11.9v-4.5c-2.7,3.5-6.7,5.2-11.3,5.2c-9.6,0-15.5-5.9-15.5-14.8v-14.6c0-3.1-0.8-4.5-3.7-4.7v-1.7
					l10.6-2.7h1.3v24.6c0,7.1,3.3,11,9.4,11c5.2,0,9.2-4.4,9.2-10.3v-16.1c0-3.1-0.8-4.5-3.7-4.7v-1.7l10.6-2.7h1.3v31.5
					C1881.6,1105.6,1882.4,1107,1885.3,1107.2z"/>
				<path d="M1956.1,1107.2v1.7h-15.7v-1.7c3-0.2,3.8-1.6,3.8-4.7v-17.5c0-6.3-2.4-11-8.5-11c-5.2,0-8.6,4.4-8.6,10.3
					c0,0.2,0,18.2,0,18.2c0,3.1,0.8,4.5,3.7,4.7v1.7h-15.6v-1.7c2.9-0.2,3.7-1.6,3.7-4.7v-17.5c0-6.3-2.3-11-8.4-11
					c-5.2,0-8.7,4.4-8.7,10.3v18.2c0,3.1,0.8,4.5,3.8,4.7v1.7H1890v-1.7c2.9-0.2,3.7-1.6,3.7-4.7v-22.2c0-3.1-0.8-4.5-3.7-4.7v-1.7
					l10.3-2.7h1.3v5.6c2.8-3.8,6.9-5.6,11.5-5.6c6.4,0,10.6,2.9,12.5,7.4c2.8-5,7.4-7.4,12.8-7.4c9.5,0,13.9,6.5,13.9,14.7v16.7
					C1952.3,1105.6,1953.1,1107,1956.1,1107.2z"/>
			</g>
		</g>
		<g>
			<g>
				<path d="M1712.8,1201.1c0,10.7-8.2,17.9-20.5,17.9c-7.3,0-14.4-3.7-16.6-6.7c-0.9-1.3-2.3-3.6-1-6.1c1-2,4.2-3,6.3-1.3
					c1.6,1.3,1.7,3.8,1.7,5.6c-0.1,3.5,4.2,6.3,9.6,6.3c8.3,0,12.1-7.1,12.1-15.4c0-8.1-4-14.6-11.5-15.2c-5-0.3-9.5,2.1-11.7,4.1
					l-2.1-0.4l2.1-26.6h28.3v6h-26.3l-1.4,17.8c2.7-1.9,6.5-3.6,11.7-3.6C1705.1,1183.7,1712.8,1190.9,1712.8,1201.1z"/>
				<path d="M1759.8,1190.8c0,17-8.5,28.2-20.9,28.2c-12.4,0-21-11.2-21-28.2c0-17,8.5-28.2,21-28.2
					C1751.3,1162.7,1759.8,1173.8,1759.8,1190.8z M1751.6,1190.8c0-17-4.8-26.1-12.7-26.1c-8,0-12.7,9.1-12.7,26.1
					c0,16.9,4.7,26.1,12.7,26.1C1746.8,1216.9,1751.6,1207.7,1751.6,1190.8z"/>
				<path d="M1807.9,1190.8c0,17-8.5,28.2-20.9,28.2c-12.4,0-21-11.2-21-28.2c0-17,8.5-28.2,21-28.2
					C1799.4,1162.7,1807.9,1173.8,1807.9,1190.8z M1799.7,1190.8c0-17-4.8-26.1-12.7-26.1c-8,0-12.7,9.1-12.7,26.1
					c0,16.9,4.7,26.1,12.7,26.1C1794.9,1216.9,1799.7,1207.7,1799.7,1190.8z"/>
			</g>
		</g>
	</g>
</g>
<g>
	<g>
		<g>
			<path d="M2508.9,803.5v2.6h-39.5v-2.6c8.1-0.7,12-5.9,8.7-13.7l-15.1-35.6h-66.5l-13.7,35.6c-3.3,8.9,0.7,13.1,8.7,13.7v2.6
				h-28.6v-2.6c8.3-0.7,12.7-6.3,15.5-13.7l44.9-117.8c3.5-9.2,0.4-14.8-6.3-15.7v-2.8h19l56.9,136.4
				C2496,797.2,2500.6,802.8,2508.9,803.5z M2461.3,750l-32.9-79h-0.2l-30.1,79H2461.3z"/>
			<path d="M2612.3,801.3c-1.5,2.8-5.9,7-12.2,7c-9.6,0-15.3-4.6-15.3-14.4c0-1.5,0-5.5,0-10.5c-3.7,13.1-15.1,24.9-34.7,24.9
				c-19.2,0.2-32.9-11.3-33.4-27.3c-0.7-18.1,13.5-30.8,33.6-32.7c21.4-2,34.5-2.6,34.5-2.6c0-6.5,0-11.3,0-11.3
				c0-24-7.2-30.5-24-30.5c-10.9,0-20.1,6.1-19.9,16.4c0,8.7-5.9,11.3-10.9,9.4c-5.5-2.4-5.5-8.7-3.3-13.1
				c5.5-10.5,18.8-15.1,33.2-15.7c19.4-0.7,39.3,7.2,39.3,36.2v57.2c0,8.7,7.4,10,12,5.7L2612.3,801.3z M2584.8,766.2
				c0-6.1,0-12.2,0-17.5c0,0-11.1,0.4-28.4,2.6c-17,2.2-27.1,13.3-26.4,28.6c0.4,14.4,10.9,23.1,26,22.7
				C2574.6,802.2,2584.8,784.9,2584.8,766.2z"/>
		</g>
	</g>
	<g>
		<g>
			<g>
				<path d="M1716.5,703.2v0.9h-8.1l-16.5-23.8c-0.4,0.1-0.7,0.1-1.1,0.1h-9.5v17.8c0,3.1,0.8,4.6,3.7,4.9v0.9h-12.6v-0.9
					c2.9-0.3,3.7-1.9,3.7-4.9v-43.1c0-3.1-0.8-4.7-3.7-4.9v-0.9h18.4c12.1,0,19.5,5.9,19.5,15.5c0,7.9-4.9,13.2-13.3,15l13.2,18.5
					C1712,700.9,1714.1,702.5,1716.5,703.2z M1705,664.8c0-8.5-4.9-14.1-14.6-14.1h-9v28.2h9C1700.1,678.9,1705,673.3,1705,664.8z"
					/>
				<path d="M1752.2,683.5h-28.3c0,0.6,0,1.2,0,1.8c0.1,18,20.5,21.4,27.2,10.9l0.9,0.6c-3.2,4.8-7.9,8.1-14.6,8.1
					c-10.3,0-18.9-7.6-18.9-19.6s8-19,18.3-19c12.5,0,15.4,10.7,15.4,16.7V683.5z M1724,682.1h23.3c-0.2-5.8-1.6-14.7-10.6-14.7
					C1729.6,667.4,1724.8,672.6,1724,682.1z"/>
				<path d="M1794.8,709.1c0.2,8.4-6.9,15.6-20.2,15.6c-13.5,0-20.9-5.7-20.8-11.8c0.1-4.5,4.2-7.8,11.1-9.3c-4.9-0.8-9.1-2.9-8.4-8
					c0.5-4.1,5.9-5.5,9.5-5.9c-3.4-2.2-5.7-5.8-5.7-10.5c0-8.1,6.5-12.8,14.3-12.8c3.3,0,6.3,0.8,8.7,2.3c0.2-2.4,1.1-4.4,2.1-5.8
					c1.9-2.5,4.5-3,5.8-1.2c1.2,1.6-0.2,4.1-3.1,4c-2.3-0.2-3.7,1.5-3.8,3.7c2.9,2.3,4.7,5.6,4.7,9.9c0,8-6.5,12.8-14.4,12.8
					c-2.5,0-4.9-0.5-7-1.5c-3,0.3-8.3,1.3-8.9,4c-0.9,3.8,4.4,4.5,16.6,4.5C1786.1,698.9,1794.7,700.9,1794.8,709.1z M1791.2,711.5
					c0.3-8.7-12.4-7.4-17.9-7.4c-1.6,0-3.7,0-5.7-0.2c-4.3,0.9-8.9,3.3-8.9,9.2c0,9.2,10.3,10,16.4,10S1791,720.4,1791.2,711.5z
					 M1774.6,690.6c5.5,0,9.2-4.4,9.2-11.5c0-7.2-3.8-11.6-9.2-11.6c-5.4,0-9.2,4.4-9.2,11.6
					C1765.4,686.3,1769.2,690.6,1774.6,690.6z"/>
				<path d="M1834.9,703.2v0.9h-8.8V698c-2.3,4.1-6.1,6.9-11.6,6.9c-8.4,0-15-4.5-15-14.9v-15.3c0-3.1-0.8-4.7-3.8-4.9v-0.9l8.1-2.5
					h0.7v23.2c0,7.4,2.7,14,11,13.9c5.7,0,10.5-5.6,10.5-10.8v-18c0-3.1-0.8-4.7-3.7-4.9v-0.9l8.1-2.5h0.6v31.9
					C1831.1,701.4,1831.9,702.9,1834.9,703.2z"/>
				<path d="M1853.7,704.1h-12.5v-0.9c2.9-0.2,3.7-1.9,3.7-4.9v-43.1c0-3.1-0.8-4.6-3.7-4.9v-0.9l8.1-2.5h0.7v51.4
					c0,3.1,0.8,4.7,3.7,4.9V704.1z"/>
				<path d="M1892.8,702.4c-0.5,1-2.1,2.5-4.4,2.5c-3.4,0-5.5-1.6-5.5-5.2c0-0.5,0-2,0-3.8c-1.3,4.7-5.4,8.9-12.4,8.9
					c-6.9,0.1-11.8-4.1-12-9.8c-0.2-6.5,4.9-11,12.1-11.7c7.7-0.7,12.4-0.9,12.4-0.9c0-2.3,0-4.1,0-4.1c0-8.6-2.6-11-8.6-11
					c-3.9,0-7.2,2.2-7.1,5.9c0,3.1-2.1,4.1-3.9,3.4c-2-0.9-2-3.1-1.2-4.7c2-3.8,6.7-5.4,11.9-5.6c7-0.2,14.1,2.6,14.1,13v20.5
					c0,3.1,2.7,3.6,4.3,2L1892.8,702.4z M1882.9,689.8c0-2.2,0-4.4,0-6.3c0,0-4,0.2-10.2,0.9c-6.1,0.8-9.7,4.8-9.5,10.3
					c0.2,5.2,3.9,8.3,9.3,8.1C1879.2,702.7,1882.9,696.5,1882.9,689.8z"/>
				<path d="M1923.7,674.8c-1.9,1.1-4.2-0.1-4.3-2.3c-0.2-2.7-1.3-3.9-3.4-4.1c-4.7-0.3-10.1,5.6-10.1,16v13.8
					c0,3.1,0.8,4.7,3.8,4.9v0.9h-12.5v-0.9c2.9-0.2,3.7-1.8,3.7-4.9v-23.6c0-3.1-0.8-4.7-3.7-4.9v-0.9l8.1-2.5h0.6v10.4
					c2-6,5.8-10.3,11.4-10.4c3.4-0.1,6.3,1.5,7.4,3.9C1925.3,671.8,1925.2,674,1923.7,674.8z"/>
			</g>
		</g>
		<g>
			<g>
				<path d="M1705,799.3v8.3c0,3.1,0.8,4.6,3.7,4.9v0.9h-12.4v-0.9c3-0.2,3.8-1.8,3.8-4.9v-8.3h-27v-1.5l27-39.2h5v39.2h7.9v1.5
					H1705z M1700,797.8v-36.5l-25.2,36.5H1700z"/>
				<path d="M1758.2,786c0,17.1-8,28.2-20,28.2c-11.9,0-19.9-11.1-19.9-28.2c0-17,8-28.2,19.9-28.2
					C1750.2,757.8,1758.2,769,1758.2,786z M1753,786c0-17.6-6.1-26.8-14.7-26.8c-8.5,0-14.7,9.2-14.7,26.8
					c0,17.7,6.2,26.8,14.7,26.8C1746.9,812.9,1753,803.7,1753,786z"/>
				<path d="M1805.1,786c0,17.1-8,28.2-20,28.2c-11.9,0-19.9-11.1-19.9-28.2c0-17,8-28.2,19.9-28.2
					C1797.1,757.8,1805.1,769,1805.1,786z M1799.9,786c0-17.6-6.1-26.8-14.7-26.8c-8.5,0-14.7,9.2-14.7,26.8
					c0,17.7,6.2,26.8,14.7,26.8C1793.8,812.9,1799.9,803.7,1799.9,786z"/>
			</g>
		</g>
	</g>
</g>
<g>
	<g>
		<g>
			<g>
				<path d="M2499.3,387.7v2h-23.6v-2c5.7-0.9,7.4-4.4,4.4-11.6l-16.6-39.3h-72.2l-14.8,39.3c-2.6,7-1.5,10.7,4.4,11.6v2h-17.9v-2
					c5.7-1.1,7.9-3.9,10.5-10.3l48-127c2.4-6.5,3.3-10.9-2.8-11.6v-2h10.9l58.5,139.2C2490.8,382.7,2493.4,386.9,2499.3,387.7z
					 M2462.4,334.3l-36.9-87.7l-33.2,87.7H2462.4z"/>
				<path d="M2601.8,386.4c-1.3,2.4-4.4,5.5-8.9,5.5c-7,0-11.1-3.7-11.1-12.2c0-2,0-7.2,0-14c-3.7,12.9-17,26.2-37.3,26.2
					c-18.5,0-32.9-9.8-34-25.7c-1.3-19.2,13.1-32.3,32.9-34c21.4-1.7,38.4-2.8,38.4-2.8c0-6.5,0-11.1,0-11.1c0-24-14.2-31.4-31-31.4
					c-10.9,0-22.9,6.1-22.7,17c0.2,4.6-2.2,7.6-6.5,6.5c-4.1-1.1-3.9-5.9-1.7-10.3c5.2-10.5,16.4-15.1,30.3-15.7
					c19.2-0.7,39.1,7.2,39.1,36.2v60c0,8.5,8.3,9.2,11.8,4.6L2601.8,386.4z M2581.8,351.3c0-7,0-14,0-19.6c0,0-15.1,0.7-32.5,2.6
					c-20.1,2.2-33.4,12.7-32.1,30.8c1.3,16.8,15.9,24.4,33.2,22.9C2571.1,386.2,2581.8,369,2581.8,351.3z"/>
			</g>
		</g>
	</g>
	<g>
		<g>
			<g>
				<path d="M1707.4,252.4h-0.7c-1.2-3.8-3-6.6-8.6-6.6h-11.3v49c0,2.7,0.2,3.9,2.7,4.1v0.7h-8.1v-0.7c2.6-0.2,2.7-1.4,2.7-4.1v-49
					h-11.3c-5.6,0-7.4,2.8-8.6,6.6h-0.7l1.4-7.6h40.9L1707.4,252.4z"/>
				<path d="M1749.3,298.9v0.7h-8.1v-0.7c2.5-0.2,2.7-1.4,2.7-4.1v-16.7c0-8.4-3.4-15.4-12.3-15.4c-5.9,0-12.6,5.1-12.6,11.4v20.7
					c0,2.7,0.2,3.9,2.7,4.1v0.7h-8.1v-0.7c2.5-0.2,2.7-1.4,2.7-4.1v-45.2c0-2.7-0.2-3.9-2.7-4.1v-0.7l4.7-1.5h0.7v26.4
					c2.3-4.4,7.4-7.9,13.1-7.9c8.5,0,14.6,5,14.6,15.4v17.6C1746.7,297.5,1746.8,298.7,1749.3,298.9z"/>
				<path d="M1765.2,298.9v0.7h-8.1v-0.7c2.5-0.2,2.7-1.4,2.7-4.1v-26.7c0-2.7-0.2-3.9-2.7-4.1v-0.7l4.7-1.5h0.7v33
					C1762.6,297.5,1762.7,298.7,1765.2,298.9z M1758.1,251.9c0-1.6,1.2-2.6,2.6-2.6c1.4,0,2.6,0.9,2.6,2.6c0,1.6-1.2,2.5-2.6,2.5
					C1759.3,254.4,1758.1,253.5,1758.1,251.9z"/>
				<path d="M1808.7,298.9v0.7h-8.1v-0.7c2.5-0.2,2.7-1.4,2.7-4.1v-16.7c0-8.4-3.4-15.4-12.4-15.4c-5.9,0-12.5,5.1-12.5,11.4v20.7
					c0,2.7,0.2,3.9,2.7,4.1v0.7h-8.1v-0.7c2.5-0.2,2.7-1.4,2.7-4.1v-26.7c0-2.7-0.2-3.9-2.7-4.1v-0.7l4.7-1.5h0.7v7.9
					c2.3-4.4,7.4-7.9,13.1-7.9c8.5,0,14.6,5,14.6,15.4v17.6C1806.1,297.5,1806.2,298.7,1808.7,298.9z"/>
			</g>
		</g>
		<g>
			<g>
				<path d="M1684.7,408.2v0.7h-8.1v-0.7c2.5-0.2,2.7-1.4,2.7-4.1v-45.7h-3.2v-0.7l5.2-3.6h0.7v50
					C1682,406.8,1682.2,408,1684.7,408.2z"/>
				<path d="M1732.9,381.5c0,17.1-7.9,28.2-19.4,28.2s-19.4-11.1-19.4-28.2c0-17,7.9-28.2,19.4-28.2S1732.9,364.5,1732.9,381.5z
					 M1729.8,381.5c0-17.9-7-27.2-16.3-27.2c-9.3,0-16.3,9.3-16.3,27.2c0,18,7,27.3,16.3,27.3
					C1722.8,408.8,1729.8,399.5,1729.8,381.5z"/>
				<path d="M1779.6,381.5c0,17.1-7.9,28.2-19.4,28.2s-19.4-11.1-19.4-28.2c0-17,7.9-28.2,19.4-28.2S1779.6,364.5,1779.6,381.5z
					 M1776.5,381.5c0-17.9-7-27.2-16.3-27.2c-9.3,0-16.3,9.3-16.3,27.2c0,18,7,27.3,16.3,27.3
					C1769.5,408.8,1776.5,399.5,1776.5,381.5z"/>
			</g>
		</g>
	</g>
</g>
<g>
	<g>
		<g>
			<path d="M2515.4,1601.9v7h-58.9v-7c8.5-0.4,12.4-5.7,9.4-13.7l-10.3-25.7h-56.3l-9.6,25.7c-3.1,8.5,0.2,13.1,8.5,13.7v7h-37.5v-7
				c8.1-0.7,12.4-5.5,15.3-13.7l40.4-109.5c3.3-8.5,2-15.1-6.8-15.7v-6.8h34.9l55.2,132C2503.2,1596.2,2507.4,1601.2,2515.4,1601.9z
				 M2450.7,1550l-24-61.5L2404,1550H2450.7z"/>
			<path d="M2627.6,1601.4c-2.6,4.4-10.3,9.6-19,9.6c-9.2,0-23.1-4.4-24-17.2c-5.5,12.4-17.7,17.2-29,17.2
				c-18.3,0-37.1-7.2-37.7-27.3c-0.7-26,20.7-33.6,41.9-35.6c10-0.9,17.9-1.5,23.3-2.2c0-5.2,0-8.9,0-8.9c0-16.8-3.3-25.3-14.4-26.6
				c-6.3-0.7-15.7,2.2-15.1,12.2c1.1,13.7-8.7,17.7-16.4,15.3c-7.4-2.6-10.7-9.8-6.5-18.8c5.9-12.9,22.7-15.7,37.1-15.7
				c20.3,0,46.3,7.9,46.3,38.8v48.9c0,8.5,7.2,8.9,10.9,5.5L2627.6,1601.4z M2583.1,1570.9c0-5.9,0-11.8,0-17c-3.1,0.2-7,0.9-12,1.5
				c-15.7,2-22.3,10.3-22.7,24.2c-0.4,14.4,7.4,20.3,17,20.1C2577.6,1599.3,2583.1,1585.7,2583.1,1570.9z"/>
		</g>
	</g>
	<g>
		<g>
			<g>
				<path d="M1718.9,1502.3c-0.6,10-9.5,15.3-22.5,15.3h-24.8v-2.5c2.9-0.2,3.7-1.9,3.7-4.9v-40c0-3.1-0.8-4.6-3.7-4.9v-2.4h20.2
					c13,0,21.9,4.5,21.5,14.2c-0.2,5.2-3.4,9.5-8.8,11C1713.3,1489.1,1719.4,1494.1,1718.9,1502.3z M1690.5,1467.4h-3.9v19.5h3.9
					c8.4,0,11.4-3.7,11.4-9.7S1698.9,1467.4,1690.5,1467.4z M1706.5,1502.3c0-7-4.3-10.7-12.7-10.7h-7.2v21.5h7.2
					C1702.1,1513.1,1706.5,1509.4,1706.5,1502.3z"/>
				<path d="M1763.4,1499.1c0,12.6-9.4,19.3-20.3,19.3c-10.9,0-20.3-6.7-20.3-19.3c0-12.6,9.4-19.3,20.3-19.3
					C1754,1479.9,1763.4,1486.5,1763.4,1499.1z M1752,1499.1c0-9.3-3.1-16-8.8-16c-5.7,0-8.9,6.7-8.9,16s3.2,16.1,8.9,16.1
					C1748.9,1515.3,1752,1508.4,1752,1499.1z"/>
				<path d="M1785.1,1515.2v2.5h-18.6v-2.5c3-0.2,3.8-1.9,3.8-4.9v-40c0-3.1-0.8-4.6-3.8-4.9v-2.5l12.9-3.1h2v50.4
					C1781.4,1513.3,1782.1,1514.9,1785.1,1515.2z"/>
				<path d="M1832.6,1516c-1.6,1.4-4.2,2.4-7.4,2.4c-3.1,0-7.3-1.6-8-5.6c-2.7,3.2-6.5,5.6-12,5.6c-10.4,0-17.4-7.4-17.4-19.3
					c0-12,7-19.3,17.4-19.3c5.1,0,8.8,2,11.4,4.8v-14.4c0-3.1-0.8-4.6-3.7-4.9v-2.5l12.8-3.1h2v51.5c0,3.1,2.2,3.4,4.1,2.5
					L1832.6,1516z M1816.6,1499.1c0-9.7-3-16.1-8.8-16.1c-6,0-8.9,7-8.9,16.1c0,9.1,2.9,16.1,8.9,16.1
					C1813.6,1515.3,1816.6,1508.8,1816.6,1499.1z"/>
			</g>
		</g>
		<g>
			<g>
				<path d="M1710.6,1572.2v3.5c-10.8,10.7-14,31.4-14.6,46c-0.2,4-2.7,6-5.4,6c-3.1,0-5.9-1.8-5.8-5.6c0.5-13.2,8.7-30,18.2-41.9
					h-17.4c-6.6,0-9,1.7-10.3,5.6h-2l1.5-13.7H1710.6z"/>
				<path d="M1756.3,1599.6c0,17-9.5,28.2-22.2,28.2s-22.2-11.2-22.2-28.2s9.5-28.2,22.2-28.2S1756.3,1582.6,1756.3,1599.6z
					 M1745,1599.6c0-15.8-3.6-25.3-10.9-25.3c-7.3,0-10.8,9.5-10.8,25.3c0,15.8,3.5,25.3,10.8,25.3
					C1741.4,1624.9,1745,1615.4,1745,1599.6z"/>
				<path d="M1805.7,1599.6c0,17-9.5,28.2-22.2,28.2s-22.2-11.2-22.2-28.2s9.5-28.2,22.2-28.2S1805.7,1582.6,1805.7,1599.6z
					 M1794.4,1599.6c0-15.8-3.6-25.3-10.9-25.3c-7.3,0-10.8,9.5-10.8,25.3c0,15.8,3.5,25.3,10.8,25.3
					C1790.8,1624.9,1794.4,1615.4,1794.4,1599.6z"/>
			</g>
		</g>
	</g>
</g>
<g>
	<g>
		<g>
			<path d="M2519.4,2014.8v9.8h-67.6v-9.8c7.6-0.7,10.3-5.5,7-13.7l-8.1-20.5h-49.5l-7.6,20.5c-3.3,8.5-0.7,12.7,7,13.7v9.8h-40.8
				v-9.8c8.1-0.9,12.4-4.6,15.9-13.7l38.6-104.3c3.3-8.9,1.5-14.2-6.3-15.3v-9.6h42.3l53.7,129.2
				C2507.4,2009.1,2511.3,2014.1,2519.4,2014.8z M2444.3,1964.6l-19.2-48.9l-18.1,48.9H2444.3z"/>
			<path d="M2640,2017.2c-2.6,4.4-13.1,9.6-24.7,9.6c-9.2,0-23.1-3.7-27.9-13.1c-5,8.1-14,13.1-27.7,13.1c-18.3,0-37.3-7.6-38-28.6
				c-1.1-27.5,21.6-34,42.8-36c6.5-0.4,12.7-1.1,17.9-1.3c0-4.1,0-6.5,0-6.5c0-17,0.2-24.9-7.2-25.7c-5-0.7-8.7,0.7-8.7,9.8
				c0.2,14.2-8.5,22.9-21.2,19.6c-9.8-2.4-15.5-12-8.9-23.1c7.2-12.4,26.6-15.7,41-15.7c20.3,0,49.1,9.2,49.1,40.4v44.5
				c0,7.6,7,8.1,10.9,5.5L2640,2017.2z M2582.4,1986.6c0-5.5,0-10.9,0-15.9c-1.5,0.2-2.8,0.4-4.6,0.7c-9.8,1.3-14.4,10-15.1,21.8
				c-0.7,12.9,3.9,19.6,10.9,18.5C2580.9,2010.6,2582.4,2001.5,2582.4,1986.6z"/>
		</g>
	</g>
	<g>
		<g>
			<g>
				<path d="M1721.7,1907.2c0,10.3-9,15.9-23,15.9h-27.6v-3.5c3-0.2,3.8-1.9,3.8-4.9v-38c0-3.1-0.8-4.6-3.8-4.9v-3.4h22.9
					c12.6,0,21.5,4.4,21.5,14.3c0,4.9-3.3,9.9-8.1,11C1716.3,1894.7,1721.7,1900.4,1721.7,1907.2z M1690.8,1891.8h2.2
					c5.5,0,8.6-3.4,8.6-8.9c0-5.6-3.1-9-8.6-9h-2.2V1891.8z M1704.7,1907.4c0-5.9-3.7-9.9-9.6-9.9h-4.3v19.8h4.3
					C1701.1,1917.3,1704.7,1913.4,1704.7,1907.4z"/>
				<path d="M1746.1,1919.5v3.5h-23.2v-3.5c2.9-0.2,3.7-1.9,3.7-4.9v-37.7c0-3.1-0.8-4.6-3.7-4.9v-3.5l16.5-3.6h3.1v49.7
					C1742.5,1917.7,1743.2,1919.3,1746.1,1919.5z"/>
				<path d="M1790.6,1920.4c-0.9,1.6-4.7,3.4-8.8,3.4c-3.3,0-8.3-1.3-10-4.7c-1.8,2.9-5,4.7-9.9,4.7c-6.6,0-13.4-2.7-13.6-10.3
					c-0.4-9.9,7.7-12.2,15.3-12.9c2.3-0.2,4.5-0.4,6.4-0.5c0-1.5,0-2.3,0-2.3c0-6.1,0.1-8.9-2.6-9.2c-1.8-0.2-3.1,0.2-3.1,3.5
					c0.1,5.1-3.1,8.2-7.6,7c-3.5-0.9-5.6-4.3-3.2-8.3c2.6-4.5,9.5-5.6,14.7-5.6c7.3,0,17.6,3.3,17.6,14.5v16c0,2.7,2.5,2.9,3.9,2
					L1790.6,1920.4z M1769.9,1909.4c0-2,0-3.9,0-5.7c-0.5,0.1-1,0.2-1.6,0.2c-3.5,0.5-5.2,3.6-5.4,7.8c-0.2,4.6,1.4,7,3.9,6.7
					C1769.4,1918,1769.9,1914.8,1769.9,1909.4z"/>
				<path d="M1829.1,1914.2c-2.7,5.2-8,9.6-16.8,9.6c-9.9,0-20.7-6.3-20.5-19.3c0.2-12,9.6-19.3,20.7-19.3c6.8,0,12.5,2.3,14.9,5.9
					c1.9,3.1,2,8.9-2.6,10.3c-4.7,1.5-9-1.6-8.5-7.3c0.4-3.9-0.9-5.6-3.8-5.4c-3.8,0.3-6.5,6.8-6.1,14.2c0.4,7.1,4,11.3,9.5,12.3
					c4.1,0.8,8.1-0.4,11.1-3.2L1829.1,1914.2z"/>
				<path d="M1883.3,1919.5v3.5h-23.9v-3.5c2.1-0.3,1.7-2.2-0.1-4.9l-5.5-8.2l-2.9,2.4v5.8c0,3.1,0.8,4.7,3.8,4.9v3.5h-23.2v-3.5
					c2.9-0.2,3.7-1.9,3.7-4.9v-37.7c0-3.1-0.8-4.7-3.7-4.9v-3.5l16.5-3.5h3v38.7l10.5-8.8c3.4-3,2.3-5.2,0.5-5.3v-3.5h16.5v3.5
					c-4,0.7-7.5,2.5-11.4,5.8l-2.8,2.3l12.4,17C1878.4,1917.1,1880.7,1918.8,1883.3,1919.5z"/>
			</g>
		</g>
		<g>
			<g>
				<path d="M1692.8,2033.1c-8.8,0-13.7-3.2-16.4-6.7c-1.5-2-2.1-4.5-1.3-7.5c1-4.1,5.3-5.6,9.4-4.1c1.8,0.7,4.5,2.5,3.3,9.4
					c-0.6,3.2,1.8,6,6.2,5.1c5.5-1.3,8.5-11.1,9.2-21c-2.3,2.4-6.5,4.3-11.3,4.3c-10.4,0-18.6-6.6-18.6-16.9
					c0-11.3,8.5-18.9,20.6-18.9c11.7,0,23,7,23.5,21.6C1718.1,2019,1706.7,2033.1,1692.8,2033.1z M1703,1994.6
					c0-8.8-2.5-13.9-7.4-13.9s-7.4,5.2-7.4,13.9c0,7.5,2.2,13,7.4,13C1700.8,2007.6,1703,2002.1,1703,1994.6z"/>
				<path d="M1769.2,2005c0,17-9.6,28.2-23.4,28.2c-13.7,0-23.3-11.2-23.3-28.2s9.6-28.2,23.3-28.2
					C1759.5,1976.8,1769.2,1988,1769.2,2005z M1753.8,2005c0-15-2.4-24.3-8-24.3c-5.5,0-7.9,9.3-7.9,24.3c0,14.9,2.4,24.3,7.9,24.3
					C1751.3,2029.2,1753.8,2019.8,1753.8,2005z"/>
				<path d="M1819.5,2005c0,17-9.6,28.2-23.4,28.2c-13.7,0-23.3-11.2-23.3-28.2s9.6-28.2,23.3-28.2
					C1809.9,1976.8,1819.5,1988,1819.5,2005z M1804.1,2005c0-15-2.4-24.3-8-24.3c-5.5,0-7.9,9.3-7.9,24.3c0,14.9,2.4,24.3,7.9,24.3
					C1801.7,2029.2,1804.1,2019.8,1804.1,2005z"/>
			</g>
		</g>
	</g>
</g>
</svg>
